%TF.GenerationSoftware,KiCad,Pcbnew,9.0.6-9.0.6~ubuntu24.04.1*%
%TF.CreationDate,2026-01-26T00:38:37+01:00*%
%TF.ProjectId,FPGA_Board_BA,46504741-5f42-46f6-9172-645f42412e6b,rev?*%
%TF.SameCoordinates,Original*%
%TF.FileFunction,Paste,Bot*%
%TF.FilePolarity,Positive*%
%FSLAX46Y46*%
G04 Gerber Fmt 4.6, Leading zero omitted, Abs format (unit mm)*
G04 Created by KiCad (PCBNEW 9.0.6-9.0.6~ubuntu24.04.1) date 2026-01-26 00:38:37*
%MOMM*%
%LPD*%
G01*
G04 APERTURE LIST*
G04 Aperture macros list*
%AMRoundRect*
0 Rectangle with rounded corners*
0 $1 Rounding radius*
0 $2 $3 $4 $5 $6 $7 $8 $9 X,Y pos of 4 corners*
0 Add a 4 corners polygon primitive as box body*
4,1,4,$2,$3,$4,$5,$6,$7,$8,$9,$2,$3,0*
0 Add four circle primitives for the rounded corners*
1,1,$1+$1,$2,$3*
1,1,$1+$1,$4,$5*
1,1,$1+$1,$6,$7*
1,1,$1+$1,$8,$9*
0 Add four rect primitives between the rounded corners*
20,1,$1+$1,$2,$3,$4,$5,0*
20,1,$1+$1,$4,$5,$6,$7,0*
20,1,$1+$1,$6,$7,$8,$9,0*
20,1,$1+$1,$8,$9,$2,$3,0*%
G04 Aperture macros list end*
%ADD10RoundRect,0.200000X-0.200000X-0.275000X0.200000X-0.275000X0.200000X0.275000X-0.200000X0.275000X0*%
%ADD11RoundRect,0.225000X-0.225000X-0.250000X0.225000X-0.250000X0.225000X0.250000X-0.225000X0.250000X0*%
%ADD12RoundRect,0.225000X-0.225000X-0.375000X0.225000X-0.375000X0.225000X0.375000X-0.225000X0.375000X0*%
%ADD13RoundRect,0.155000X0.155000X-0.212500X0.155000X0.212500X-0.155000X0.212500X-0.155000X-0.212500X0*%
%ADD14RoundRect,0.225000X0.250000X-0.225000X0.250000X0.225000X-0.250000X0.225000X-0.250000X-0.225000X0*%
%ADD15RoundRect,0.225000X-0.250000X0.225000X-0.250000X-0.225000X0.250000X-0.225000X0.250000X0.225000X0*%
%ADD16RoundRect,0.225000X0.225000X0.250000X-0.225000X0.250000X-0.225000X-0.250000X0.225000X-0.250000X0*%
%ADD17RoundRect,0.200000X-0.275000X0.200000X-0.275000X-0.200000X0.275000X-0.200000X0.275000X0.200000X0*%
%ADD18RoundRect,0.200000X0.200000X0.275000X-0.200000X0.275000X-0.200000X-0.275000X0.200000X-0.275000X0*%
%ADD19RoundRect,0.237500X-0.250000X-0.237500X0.250000X-0.237500X0.250000X0.237500X-0.250000X0.237500X0*%
G04 APERTURE END LIST*
D10*
%TO.C,R6*%
X121041199Y-157601037D03*
X122691199Y-157601037D03*
%TD*%
D11*
%TO.C,C115*%
X133275000Y-158325000D03*
X134825000Y-158325000D03*
%TD*%
%TO.C,C147*%
X308722500Y-135465012D03*
X310272500Y-135465012D03*
%TD*%
D12*
%TO.C,D26*%
X230850000Y-161125000D03*
X234150000Y-161125000D03*
%TD*%
D13*
%TO.C,D23*%
X147705000Y-198380000D03*
X147705000Y-197245000D03*
%TD*%
D14*
%TO.C,C43*%
X239800000Y-188175000D03*
X239800000Y-186625000D03*
%TD*%
D15*
%TO.C,C108*%
X123300000Y-164050000D03*
X123300000Y-165600000D03*
%TD*%
D11*
%TO.C,C28*%
X247275000Y-199900000D03*
X248825000Y-199900000D03*
%TD*%
D13*
%TO.C,D20*%
X139955000Y-198380000D03*
X139955000Y-197245000D03*
%TD*%
D11*
%TO.C,C37*%
X247275000Y-196900000D03*
X248825000Y-196900000D03*
%TD*%
%TO.C,C113*%
X133275000Y-156825000D03*
X134825000Y-156825000D03*
%TD*%
D12*
%TO.C,D28*%
X230850000Y-171675000D03*
X234150000Y-171675000D03*
%TD*%
D11*
%TO.C,C14*%
X122275000Y-160575000D03*
X123825000Y-160575000D03*
%TD*%
D14*
%TO.C,C45*%
X241300000Y-188175000D03*
X241300000Y-186625000D03*
%TD*%
D13*
%TO.C,D15*%
X127455000Y-198380000D03*
X127455000Y-197245000D03*
%TD*%
D16*
%TO.C,C56*%
X188612500Y-66900000D03*
X187062500Y-66900000D03*
%TD*%
D15*
%TO.C,C69*%
X237550000Y-189125000D03*
X237550000Y-190675000D03*
%TD*%
D14*
%TO.C,C80*%
X244300000Y-188175000D03*
X244300000Y-186625000D03*
%TD*%
D11*
%TO.C,C103*%
X133275000Y-159825000D03*
X134825000Y-159825000D03*
%TD*%
D15*
%TO.C,C34*%
X240300000Y-203125000D03*
X240300000Y-204675000D03*
%TD*%
D13*
%TO.C,D22*%
X144955000Y-198380000D03*
X144955000Y-197245000D03*
%TD*%
D11*
%TO.C,C30*%
X247275000Y-201400000D03*
X248825000Y-201400000D03*
%TD*%
D10*
%TO.C,R221*%
X151725000Y-130865523D03*
X153375000Y-130865523D03*
%TD*%
D16*
%TO.C,C100*%
X117575000Y-160325000D03*
X116025000Y-160325000D03*
%TD*%
%TO.C,C55*%
X170975000Y-66900000D03*
X169425000Y-66900000D03*
%TD*%
D17*
%TO.C,R124*%
X108760000Y-190075000D03*
X108760000Y-191725000D03*
%TD*%
D11*
%TO.C,C88*%
X247275000Y-192400000D03*
X248825000Y-192400000D03*
%TD*%
%TO.C,C66*%
X239775000Y-190900000D03*
X241325000Y-190900000D03*
%TD*%
D14*
%TO.C,C71*%
X244550000Y-198175000D03*
X244550000Y-196625000D03*
%TD*%
%TO.C,C73*%
X269205000Y-204071930D03*
X269205000Y-202521930D03*
%TD*%
D15*
%TO.C,C122*%
X94972579Y-203413010D03*
X94972579Y-204963010D03*
%TD*%
D14*
%TO.C,C41*%
X309205000Y-204071930D03*
X309205000Y-202521930D03*
%TD*%
D15*
%TO.C,C93*%
X129300000Y-164050000D03*
X129300000Y-165600000D03*
%TD*%
%TO.C,C58*%
X245050000Y-201625000D03*
X245050000Y-203175000D03*
%TD*%
D14*
%TO.C,C40*%
X289205000Y-204071930D03*
X289205000Y-202521930D03*
%TD*%
D16*
%TO.C,C60*%
X238075000Y-200650000D03*
X236525000Y-200650000D03*
%TD*%
D10*
%TO.C,R110*%
X121041199Y-155851037D03*
X122691199Y-155851037D03*
%TD*%
D18*
%TO.C,R59*%
X188775000Y-70400000D03*
X187125000Y-70400000D03*
%TD*%
D16*
%TO.C,C67*%
X233575000Y-197400000D03*
X232025000Y-197400000D03*
%TD*%
D14*
%TO.C,C78*%
X242800000Y-188175000D03*
X242800000Y-186625000D03*
%TD*%
D13*
%TO.C,D4*%
X155205000Y-198380000D03*
X155205000Y-197245000D03*
%TD*%
D12*
%TO.C,D29*%
X246900000Y-161125000D03*
X243600000Y-161125000D03*
%TD*%
D15*
%TO.C,C118*%
X126300000Y-164050000D03*
X126300000Y-165600000D03*
%TD*%
D12*
%TO.C,D31*%
X243600000Y-169125000D03*
X246900000Y-169125000D03*
%TD*%
D11*
%TO.C,C85*%
X247275000Y-190900000D03*
X248825000Y-190900000D03*
%TD*%
D16*
%TO.C,C98*%
X117575000Y-161825000D03*
X116025000Y-161825000D03*
%TD*%
D12*
%TO.C,D27*%
X230850000Y-169125000D03*
X234150000Y-169125000D03*
%TD*%
D17*
%TO.C,R133*%
X97510000Y-190075000D03*
X97510000Y-191725000D03*
%TD*%
D11*
%TO.C,C152*%
X327972500Y-135465012D03*
X329522500Y-135465012D03*
%TD*%
D16*
%TO.C,C72*%
X241075000Y-200650000D03*
X239525000Y-200650000D03*
%TD*%
D12*
%TO.C,D25*%
X230850000Y-163675000D03*
X234150000Y-163675000D03*
%TD*%
D11*
%TO.C,C105*%
X133275000Y-161325000D03*
X134825000Y-161325000D03*
%TD*%
D13*
%TO.C,D1*%
X150205000Y-198380000D03*
X150205000Y-197245000D03*
%TD*%
%TO.C,D16*%
X129955000Y-198380000D03*
X129955000Y-197245000D03*
%TD*%
%TO.C,D17*%
X132455000Y-198380000D03*
X132455000Y-197245000D03*
%TD*%
D12*
%TO.C,D32*%
X243600000Y-171675000D03*
X246900000Y-171675000D03*
%TD*%
D11*
%TO.C,C39*%
X247275000Y-198400000D03*
X248825000Y-198400000D03*
%TD*%
D13*
%TO.C,D21*%
X142455000Y-198380000D03*
X142455000Y-197245000D03*
%TD*%
D16*
%TO.C,C160*%
X117575000Y-157325000D03*
X116025000Y-157325000D03*
%TD*%
D17*
%TO.C,R142*%
X108720000Y-203425000D03*
X108720000Y-205075000D03*
%TD*%
%TO.C,R115*%
X97550000Y-176725000D03*
X97550000Y-178375000D03*
%TD*%
D11*
%TO.C,C83*%
X247275000Y-189400000D03*
X248825000Y-189400000D03*
%TD*%
D15*
%TO.C,C112*%
X95012579Y-190063010D03*
X95012579Y-191613010D03*
%TD*%
D18*
%TO.C,R60*%
X188775000Y-68650000D03*
X187125000Y-68650000D03*
%TD*%
D15*
%TO.C,C70*%
X244300000Y-193125000D03*
X244300000Y-194675000D03*
%TD*%
D14*
%TO.C,C64*%
X243800000Y-191425000D03*
X243800000Y-189875000D03*
%TD*%
D15*
%TO.C,C36*%
X238800000Y-203125000D03*
X238800000Y-204675000D03*
%TD*%
D14*
%TO.C,C13*%
X128550000Y-161370000D03*
X128550000Y-159820000D03*
%TD*%
D13*
%TO.C,D14*%
X124955000Y-198380000D03*
X124955000Y-197245000D03*
%TD*%
D18*
%TO.C,R56*%
X171025000Y-70400000D03*
X169375000Y-70400000D03*
%TD*%
D15*
%TO.C,C102*%
X95052579Y-176713010D03*
X95052579Y-178263010D03*
%TD*%
D14*
%TO.C,C42*%
X329205000Y-204071930D03*
X329205000Y-202521930D03*
%TD*%
D16*
%TO.C,C158*%
X117575000Y-158825000D03*
X116025000Y-158825000D03*
%TD*%
D17*
%TO.C,R151*%
X97470000Y-203425000D03*
X97470000Y-205075000D03*
%TD*%
D12*
%TO.C,D30*%
X243600000Y-163675000D03*
X246900000Y-163675000D03*
%TD*%
D11*
%TO.C,C11*%
X125275000Y-161825000D03*
X126825000Y-161825000D03*
%TD*%
D15*
%TO.C,C162*%
X95092579Y-163363010D03*
X95092579Y-164913010D03*
%TD*%
D13*
%TO.C,D19*%
X137455000Y-198380000D03*
X137455000Y-197245000D03*
%TD*%
D15*
%TO.C,C120*%
X124800000Y-164050000D03*
X124800000Y-165600000D03*
%TD*%
D11*
%TO.C,C15*%
X119025000Y-154325000D03*
X120575000Y-154325000D03*
%TD*%
%TO.C,C90*%
X247300000Y-193900000D03*
X248850000Y-193900000D03*
%TD*%
D16*
%TO.C,C62*%
X237325000Y-202150000D03*
X235775000Y-202150000D03*
%TD*%
D11*
%TO.C,C165*%
X142187130Y-97900000D03*
X143737130Y-97900000D03*
%TD*%
D15*
%TO.C,C95*%
X127800000Y-164050000D03*
X127800000Y-165600000D03*
%TD*%
%TO.C,C107*%
X106262579Y-190063010D03*
X106262579Y-191613010D03*
%TD*%
D14*
%TO.C,C12*%
X130300000Y-156600000D03*
X130300000Y-155050000D03*
%TD*%
D15*
%TO.C,C33*%
X241800000Y-203125000D03*
X241800000Y-204675000D03*
%TD*%
D13*
%TO.C,D18*%
X134955000Y-198380000D03*
X134955000Y-197245000D03*
%TD*%
D11*
%TO.C,C157*%
X270222500Y-135465012D03*
X271772500Y-135465012D03*
%TD*%
D15*
%TO.C,C110*%
X121800000Y-164050000D03*
X121800000Y-165600000D03*
%TD*%
D16*
%TO.C,C59*%
X233570000Y-194815012D03*
X232020000Y-194815012D03*
%TD*%
D18*
%TO.C,R57*%
X171025000Y-68650000D03*
X169375000Y-68650000D03*
%TD*%
D15*
%TO.C,C31*%
X243300000Y-203125000D03*
X243300000Y-204675000D03*
%TD*%
D11*
%TO.C,C136*%
X289472500Y-135465012D03*
X291022500Y-135465012D03*
%TD*%
D10*
%TO.C,R241*%
X151725000Y-120865523D03*
X153375000Y-120865523D03*
%TD*%
D17*
%TO.C,R249*%
X97590000Y-163375000D03*
X97590000Y-165025000D03*
%TD*%
D15*
%TO.C,C7*%
X130800000Y-158800000D03*
X130800000Y-160350000D03*
%TD*%
D19*
%TO.C,R117*%
X142049630Y-99650000D03*
X143874630Y-99650000D03*
%TD*%
D15*
%TO.C,C9*%
X120800000Y-159575000D03*
X120800000Y-161125000D03*
%TD*%
D13*
%TO.C,D3*%
X152705000Y-198380000D03*
X152705000Y-197245000D03*
%TD*%
D17*
%TO.C,R106*%
X108800000Y-176725000D03*
X108800000Y-178375000D03*
%TD*%
D15*
%TO.C,C97*%
X106302579Y-176713010D03*
X106302579Y-178263010D03*
%TD*%
%TO.C,C117*%
X106222579Y-203413010D03*
X106222579Y-204963010D03*
%TD*%
M02*
