%TF.GenerationSoftware,KiCad,Pcbnew,9.0.6-9.0.6~ubuntu24.04.1*%
%TF.CreationDate,2026-01-26T00:38:37+01:00*%
%TF.ProjectId,FPGA_Board_BA,46504741-5f42-46f6-9172-645f42412e6b,rev?*%
%TF.SameCoordinates,Original*%
%TF.FileFunction,Paste,Top*%
%TF.FilePolarity,Positive*%
%FSLAX46Y46*%
G04 Gerber Fmt 4.6, Leading zero omitted, Abs format (unit mm)*
G04 Created by KiCad (PCBNEW 9.0.6-9.0.6~ubuntu24.04.1) date 2026-01-26 00:38:37*
%MOMM*%
%LPD*%
G01*
G04 APERTURE LIST*
G04 Aperture macros list*
%AMRoundRect*
0 Rectangle with rounded corners*
0 $1 Rounding radius*
0 $2 $3 $4 $5 $6 $7 $8 $9 X,Y pos of 4 corners*
0 Add a 4 corners polygon primitive as box body*
4,1,4,$2,$3,$4,$5,$6,$7,$8,$9,$2,$3,0*
0 Add four circle primitives for the rounded corners*
1,1,$1+$1,$2,$3*
1,1,$1+$1,$4,$5*
1,1,$1+$1,$6,$7*
1,1,$1+$1,$8,$9*
0 Add four rect primitives between the rounded corners*
20,1,$1+$1,$2,$3,$4,$5,0*
20,1,$1+$1,$4,$5,$6,$7,0*
20,1,$1+$1,$6,$7,$8,$9,0*
20,1,$1+$1,$8,$9,$2,$3,0*%
G04 Aperture macros list end*
%ADD10C,0.000000*%
%ADD11RoundRect,0.249999X0.737501X2.450001X-0.737501X2.450001X-0.737501X-2.450001X0.737501X-2.450001X0*%
%ADD12RoundRect,0.249999X-0.737501X-2.450001X0.737501X-2.450001X0.737501X2.450001X-0.737501X2.450001X0*%
%ADD13RoundRect,0.200000X0.200000X0.275000X-0.200000X0.275000X-0.200000X-0.275000X0.200000X-0.275000X0*%
%ADD14RoundRect,0.218750X-0.218750X-0.256250X0.218750X-0.256250X0.218750X0.256250X-0.218750X0.256250X0*%
%ADD15RoundRect,0.225000X-0.250000X0.225000X-0.250000X-0.225000X0.250000X-0.225000X0.250000X0.225000X0*%
%ADD16RoundRect,0.225000X0.250000X-0.225000X0.250000X0.225000X-0.250000X0.225000X-0.250000X-0.225000X0*%
%ADD17R,1.500000X4.400000*%
%ADD18RoundRect,0.250000X-0.625000X0.312500X-0.625000X-0.312500X0.625000X-0.312500X0.625000X0.312500X0*%
%ADD19RoundRect,0.200000X-0.200000X-0.275000X0.200000X-0.275000X0.200000X0.275000X-0.200000X0.275000X0*%
%ADD20RoundRect,0.200000X0.275000X-0.200000X0.275000X0.200000X-0.275000X0.200000X-0.275000X-0.200000X0*%
%ADD21RoundRect,0.200000X-0.275000X0.200000X-0.275000X-0.200000X0.275000X-0.200000X0.275000X0.200000X0*%
%ADD22RoundRect,0.237500X-0.237500X0.300000X-0.237500X-0.300000X0.237500X-0.300000X0.237500X0.300000X0*%
%ADD23R,3.360000X4.860000*%
%ADD24R,1.390000X1.400000*%
%ADD25R,2.600000X0.700000*%
%ADD26C,1.000000*%
%ADD27R,9.000000X2.380000*%
%ADD28RoundRect,0.225000X-0.225000X-0.250000X0.225000X-0.250000X0.225000X0.250000X-0.225000X0.250000X0*%
%ADD29RoundRect,0.237500X0.237500X-0.250000X0.237500X0.250000X-0.237500X0.250000X-0.237500X-0.250000X0*%
%ADD30RoundRect,0.062500X0.375000X0.062500X-0.375000X0.062500X-0.375000X-0.062500X0.375000X-0.062500X0*%
%ADD31RoundRect,0.062500X0.062500X0.375000X-0.062500X0.375000X-0.062500X-0.375000X0.062500X-0.375000X0*%
%ADD32RoundRect,0.495000X1.155000X1.155000X-1.155000X1.155000X-1.155000X-1.155000X1.155000X-1.155000X0*%
%ADD33R,1.450000X5.500000*%
%ADD34RoundRect,0.225000X0.225000X0.250000X-0.225000X0.250000X-0.225000X-0.250000X0.225000X-0.250000X0*%
%ADD35RoundRect,0.218750X0.218750X0.256250X-0.218750X0.256250X-0.218750X-0.256250X0.218750X-0.256250X0*%
%ADD36R,1.900000X0.800000*%
%ADD37R,0.650000X1.526000*%
%ADD38RoundRect,0.255000X0.255000X-2.245000X0.255000X2.245000X-0.255000X2.245000X-0.255000X-2.245000X0*%
%ADD39R,1.475000X0.450000*%
%ADD40R,1.000000X3.150000*%
%ADD41RoundRect,0.237500X-0.300000X-0.237500X0.300000X-0.237500X0.300000X0.237500X-0.300000X0.237500X0*%
%ADD42R,0.267000X0.249999*%
%ADD43RoundRect,0.315000X-0.935000X-0.735000X0.935000X-0.735000X0.935000X0.735000X-0.935000X0.735000X0*%
%ADD44RoundRect,0.241875X-0.620623X-0.564375X0.620623X-0.564375X0.620623X0.564375X-0.620623X0.564375X0*%
%ADD45R,0.599999X0.249999*%
%ADD46R,0.249999X0.599999*%
%ADD47RoundRect,0.330000X-1.219997X-0.770000X1.219997X-0.770000X1.219997X0.770000X-1.219997X0.770000X0*%
%ADD48R,0.292999X0.249999*%
%ADD49R,0.249999X0.258000*%
%ADD50RoundRect,0.250000X-0.325000X-1.100000X0.325000X-1.100000X0.325000X1.100000X-0.325000X1.100000X0*%
%ADD51R,2.000000X1.500000*%
%ADD52R,2.000000X3.800000*%
%ADD53RoundRect,0.237500X-0.237500X0.250000X-0.237500X-0.250000X0.237500X-0.250000X0.237500X0.250000X0*%
%ADD54R,0.700000X0.250000*%
%ADD55R,0.250000X0.700000*%
%ADD56R,0.811500X0.967500*%
%ADD57RoundRect,0.250000X-1.100000X0.412500X-1.100000X-0.412500X1.100000X-0.412500X1.100000X0.412500X0*%
%ADD58R,0.450000X1.475000*%
%ADD59R,0.850000X0.300000*%
%ADD60R,1.600000X1.400000*%
%ADD61R,2.920000X0.740000*%
%ADD62RoundRect,0.250000X1.100000X-0.412500X1.100000X0.412500X-1.100000X0.412500X-1.100000X-0.412500X0*%
%ADD63RoundRect,0.250000X-1.425000X0.362500X-1.425000X-0.362500X1.425000X-0.362500X1.425000X0.362500X0*%
%ADD64R,1.050000X3.400000*%
%ADD65R,0.900000X3.200000*%
%ADD66R,1.150000X0.350000*%
%ADD67R,1.450000X0.200000*%
%ADD68R,0.450000X0.250000*%
%ADD69R,0.967500X0.811500*%
%ADD70RoundRect,0.237500X-0.250000X-0.237500X0.250000X-0.237500X0.250000X0.237500X-0.250000X0.237500X0*%
G04 APERTURE END LIST*
D10*
%TO.C,U4*%
G36*
X134250132Y-97408002D02*
G01*
X134250132Y-98208001D01*
X134200132Y-98258000D01*
X133980130Y-98258000D01*
X133930130Y-98208001D01*
X133930130Y-97408002D01*
X133980130Y-97358002D01*
X134200132Y-97358002D01*
X134250132Y-97408002D01*
G37*
G36*
X135949130Y-97408002D02*
G01*
X135949130Y-98208001D01*
X135899130Y-98258000D01*
X134499131Y-98258000D01*
X134449131Y-98208001D01*
X134449131Y-97408002D01*
X134499131Y-97358002D01*
X135899130Y-97358002D01*
X135949130Y-97408002D01*
G37*
G36*
X136599131Y-100648001D02*
G01*
X136599131Y-101968001D01*
X136549131Y-102018001D01*
X135299131Y-102018001D01*
X135249132Y-101968001D01*
X135249132Y-100648001D01*
X135299131Y-100598001D01*
X136549131Y-100598001D01*
X136599131Y-100648001D01*
G37*
G36*
X135899130Y-98458003D02*
G01*
X135949130Y-98508000D01*
X135949130Y-99408001D01*
X135899130Y-99458003D01*
X134749130Y-99458001D01*
X134449131Y-99158001D01*
X134449131Y-98508002D01*
X134499131Y-98458000D01*
X135899130Y-98458003D01*
G37*
G36*
X137899131Y-98080000D02*
G01*
X137899131Y-99730002D01*
X137849131Y-99780001D01*
X136679131Y-99780001D01*
X136629131Y-99730002D01*
X136629131Y-98080000D01*
X136679131Y-98030000D01*
X137849131Y-98030000D01*
X137899131Y-98080000D01*
G37*
G36*
X138149131Y-100648001D02*
G01*
X138149131Y-101968001D01*
X138099131Y-102018001D01*
X136849131Y-102018001D01*
X136799131Y-101968001D01*
X136799131Y-100648001D01*
X136849131Y-100598001D01*
X138099131Y-100598001D01*
X138149131Y-100648001D01*
G37*
G36*
X139369131Y-98080000D02*
G01*
X139369131Y-99730002D01*
X139319131Y-99780001D01*
X138149131Y-99780001D01*
X138099131Y-99730002D01*
X138099131Y-98080000D01*
X138149131Y-98030000D01*
X139319131Y-98030000D01*
X139369131Y-98080000D01*
G37*
%TD*%
D11*
%TO.C,C126*%
X44162500Y-114900000D03*
X49437500Y-114900000D03*
%TD*%
%TO.C,C178*%
X44162500Y-94400000D03*
X49437500Y-94400000D03*
%TD*%
D12*
%TO.C,C177*%
X119662500Y-121400000D03*
X124937500Y-121400000D03*
%TD*%
D13*
%TO.C,R202*%
X244700000Y-72150000D03*
X243050000Y-72150000D03*
%TD*%
D14*
%TO.C,D7*%
X47032500Y-75340012D03*
X48607500Y-75340012D03*
%TD*%
D15*
%TO.C,C82*%
X303375990Y-117375000D03*
X303375990Y-118925000D03*
%TD*%
%TO.C,C25*%
X90550000Y-123643000D03*
X90550000Y-125193000D03*
%TD*%
%TO.C,C167*%
X139212130Y-106050000D03*
X139212130Y-107600000D03*
%TD*%
D14*
%TO.C,D10*%
X183895000Y-204840012D03*
X185470000Y-204840012D03*
%TD*%
D13*
%TO.C,R180*%
X244700000Y-95400000D03*
X243050000Y-95400000D03*
%TD*%
D16*
%TO.C,C121*%
X97220000Y-199200000D03*
X97220000Y-197650000D03*
%TD*%
D17*
%TO.C,L3*%
X176300000Y-205450000D03*
X179350000Y-205450000D03*
%TD*%
D18*
%TO.C,R11*%
X327803000Y-190122430D03*
X327803000Y-193047430D03*
%TD*%
D19*
%TO.C,R121*%
X133225000Y-161325000D03*
X134875000Y-161325000D03*
%TD*%
D18*
%TO.C,R18*%
X290550000Y-194872430D03*
X290550000Y-197797430D03*
%TD*%
D20*
%TO.C,R109*%
X132212130Y-107650000D03*
X132212130Y-106000000D03*
%TD*%
D13*
%TO.C,R264*%
X241625000Y-162575000D03*
X239975000Y-162575000D03*
%TD*%
D16*
%TO.C,C130*%
X237300000Y-108401335D03*
X237300000Y-106851335D03*
%TD*%
D20*
%TO.C,R62*%
X124820000Y-79225000D03*
X124820000Y-77575000D03*
%TD*%
D13*
%TO.C,R173*%
X244700000Y-107650000D03*
X243050000Y-107650000D03*
%TD*%
D21*
%TO.C,R92*%
X289800000Y-125250000D03*
X289800000Y-126900000D03*
%TD*%
D19*
%TO.C,R84*%
X247225000Y-189400000D03*
X248875000Y-189400000D03*
%TD*%
D13*
%TO.C,R184*%
X244700000Y-118400000D03*
X243050000Y-118400000D03*
%TD*%
%TO.C,R1*%
X235125000Y-189502912D03*
X233475000Y-189502912D03*
%TD*%
D15*
%TO.C,C174*%
X178050000Y-148125000D03*
X178050000Y-149675000D03*
%TD*%
D13*
%TO.C,R206*%
X244700000Y-65150000D03*
X243050000Y-65150000D03*
%TD*%
%TO.C,R234*%
X184125000Y-123709473D03*
X182475000Y-123709473D03*
%TD*%
D22*
%TO.C,C23*%
X89800000Y-134787500D03*
X89800000Y-136512500D03*
%TD*%
D23*
%TO.C,D6*%
X91220000Y-119632000D03*
D24*
X90300000Y-115650000D03*
X92140000Y-115650000D03*
%TD*%
D15*
%TO.C,C29*%
X245800000Y-199875000D03*
X245800000Y-201425000D03*
%TD*%
D19*
%TO.C,R86*%
X285725000Y-114725000D03*
X287375000Y-114725000D03*
%TD*%
D25*
%TO.C,Q1*%
X59980000Y-108250000D03*
X59980000Y-107050000D03*
X59980000Y-105850000D03*
X59980000Y-104650000D03*
X59980000Y-103450000D03*
X59980000Y-102250000D03*
X59980000Y-101050000D03*
X59980000Y-99850000D03*
D26*
X54800000Y-108250000D03*
X54800000Y-107050000D03*
X54800000Y-105850000D03*
X54800000Y-104650000D03*
X54800000Y-103450000D03*
X54800000Y-102250000D03*
X54800000Y-101050000D03*
X54800000Y-99850000D03*
X53600000Y-108250000D03*
X53600000Y-107050000D03*
X53600000Y-105850000D03*
X53600000Y-104650000D03*
X53600000Y-103450000D03*
X53600000Y-102250000D03*
X53600000Y-101050000D03*
X53600000Y-99850000D03*
X52400000Y-107050000D03*
X52400000Y-105850000D03*
X52400000Y-104650000D03*
X52400000Y-103450000D03*
X52400000Y-102250000D03*
X52400000Y-101050000D03*
X51200000Y-107050000D03*
X51200000Y-105850000D03*
X51200000Y-104650000D03*
X51200000Y-103450000D03*
X51200000Y-102250000D03*
X51200000Y-101050000D03*
X50000000Y-107050000D03*
X50000000Y-105850000D03*
X50000000Y-104650000D03*
X50000000Y-103450000D03*
X50000000Y-102250000D03*
X50000000Y-101050000D03*
X48800000Y-108250000D03*
X48800000Y-107050000D03*
X48800000Y-105850000D03*
X48800000Y-104650000D03*
X48800000Y-103450000D03*
X48800000Y-102250000D03*
X48800000Y-101050000D03*
X48800000Y-99850000D03*
%TD*%
D27*
%TO.C,L4*%
X101050000Y-87325000D03*
X101050000Y-93975000D03*
%TD*%
D21*
%TO.C,R33*%
X241800000Y-203075000D03*
X241800000Y-204725000D03*
%TD*%
D13*
%TO.C,R189*%
X244700000Y-139650000D03*
X243050000Y-139650000D03*
%TD*%
D21*
%TO.C,R227*%
X209300000Y-147500000D03*
X209300000Y-149150000D03*
%TD*%
D16*
%TO.C,C111*%
X97260000Y-185850000D03*
X97260000Y-184300000D03*
%TD*%
D19*
%TO.C,R104*%
X105225000Y-172300000D03*
X106875000Y-172300000D03*
%TD*%
D14*
%TO.C,D8*%
X47032500Y-80840012D03*
X48607500Y-80840012D03*
%TD*%
D18*
%TO.C,R14*%
X307800000Y-194855430D03*
X307800000Y-197780430D03*
%TD*%
D15*
%TO.C,C145*%
X151550000Y-126090523D03*
X151550000Y-127640523D03*
%TD*%
D13*
%TO.C,R211*%
X244700000Y-150400000D03*
X243050000Y-150400000D03*
%TD*%
D20*
%TO.C,R258*%
X329300000Y-210084930D03*
X329300000Y-208434930D03*
%TD*%
D28*
%TO.C,C68*%
X245775000Y-195400000D03*
X247325000Y-195400000D03*
%TD*%
D21*
%TO.C,R266*%
X248550000Y-171250000D03*
X248550000Y-172900000D03*
%TD*%
D19*
%TO.C,R223*%
X313475000Y-203584930D03*
X315125000Y-203584930D03*
%TD*%
D13*
%TO.C,R218*%
X155125000Y-152691143D03*
X153475000Y-152691143D03*
%TD*%
D20*
%TO.C,R127*%
X137462130Y-107650000D03*
X137462130Y-106000000D03*
%TD*%
D13*
%TO.C,R203*%
X244700000Y-70400000D03*
X243050000Y-70400000D03*
%TD*%
D29*
%TO.C,R4*%
X86300000Y-136562500D03*
X86300000Y-134737500D03*
%TD*%
D18*
%TO.C,R13*%
X287800000Y-194855430D03*
X287800000Y-197780430D03*
%TD*%
D30*
%TO.C,U3*%
X87487500Y-130650000D03*
X87487500Y-130150000D03*
X87487500Y-129650000D03*
X87487500Y-129150000D03*
X87487500Y-128650000D03*
X87487500Y-128150000D03*
X87487500Y-127650000D03*
X87487500Y-127150000D03*
X87487500Y-126650000D03*
X87487500Y-126150000D03*
D31*
X86800000Y-125462500D03*
X86300000Y-125462500D03*
X85800000Y-125462500D03*
X85300000Y-125462500D03*
X84800000Y-125462500D03*
X84300000Y-125462500D03*
X83800000Y-125462500D03*
X83300000Y-125462500D03*
X82800000Y-125462500D03*
X82300000Y-125462500D03*
D30*
X81612500Y-126150000D03*
X81612500Y-126650000D03*
X81612500Y-127150000D03*
X81612500Y-127650000D03*
X81612500Y-128150000D03*
X81612500Y-128650000D03*
X81612500Y-129150000D03*
X81612500Y-129650000D03*
X81612500Y-130150000D03*
X81612500Y-130650000D03*
D31*
X82300000Y-131337500D03*
X82800000Y-131337500D03*
X83300000Y-131337500D03*
X83800000Y-131337500D03*
X84300000Y-131337500D03*
X84800000Y-131337500D03*
X85300000Y-131337500D03*
X85800000Y-131337500D03*
X86300000Y-131337500D03*
X86800000Y-131337500D03*
D32*
X84550000Y-128400000D03*
%TD*%
D13*
%TO.C,R193*%
X244700000Y-132650000D03*
X243050000Y-132650000D03*
%TD*%
%TO.C,R111*%
X117625000Y-161825000D03*
X115975000Y-161825000D03*
%TD*%
%TO.C,R213*%
X244700000Y-146900000D03*
X243050000Y-146900000D03*
%TD*%
D33*
%TO.C,L2*%
X147287130Y-98975000D03*
X151287130Y-98975000D03*
%TD*%
D34*
%TO.C,C94*%
X129325000Y-162575000D03*
X127775000Y-162575000D03*
%TD*%
D15*
%TO.C,C54*%
X153300000Y-77350000D03*
X153300000Y-78900000D03*
%TD*%
D19*
%TO.C,R85*%
X247225000Y-190900000D03*
X248875000Y-190900000D03*
%TD*%
D13*
%TO.C,R199*%
X304987500Y-203334930D03*
X303337500Y-203334930D03*
%TD*%
D15*
%TO.C,C92*%
X264875990Y-117375000D03*
X264875990Y-118925000D03*
%TD*%
D13*
%TO.C,R212*%
X244700000Y-148650000D03*
X243050000Y-148650000D03*
%TD*%
D19*
%TO.C,R98*%
X272610990Y-117400000D03*
X274260990Y-117400000D03*
%TD*%
D18*
%TO.C,R22*%
X330550000Y-194872430D03*
X330550000Y-197797430D03*
%TD*%
D15*
%TO.C,C151*%
X178300000Y-127434473D03*
X178300000Y-128984473D03*
%TD*%
D35*
%TO.C,D13*%
X216050000Y-71650000D03*
X214475000Y-71650000D03*
%TD*%
D16*
%TO.C,C124*%
X213050000Y-200787500D03*
X213050000Y-199237500D03*
%TD*%
D18*
%TO.C,R24*%
X270550000Y-194872430D03*
X270550000Y-197797430D03*
%TD*%
D13*
%TO.C,R195*%
X244700000Y-129150000D03*
X243050000Y-129150000D03*
%TD*%
D36*
%TO.C,Q3*%
X230800000Y-161375000D03*
X230800000Y-163275000D03*
X233800000Y-162325000D03*
%TD*%
D16*
%TO.C,C159*%
X119050000Y-158850000D03*
X119050000Y-157300000D03*
%TD*%
D37*
%TO.C,U7*%
X324707000Y-122682000D03*
X325977000Y-122682000D03*
X327247000Y-122682000D03*
X328517000Y-122682000D03*
X328517000Y-117258000D03*
X327247000Y-117258000D03*
X325977000Y-117258000D03*
X324707000Y-117258000D03*
%TD*%
D38*
%TO.C,U46*%
X264830000Y-87200000D03*
X264830000Y-79600000D03*
X267370000Y-87200000D03*
X267370000Y-79600000D03*
X269910000Y-87200000D03*
X269910000Y-79600000D03*
X272450000Y-87200000D03*
X272450000Y-79600000D03*
X274990000Y-87200000D03*
X274990000Y-79600000D03*
X277530000Y-87200000D03*
X277530000Y-79600000D03*
X280070000Y-87200000D03*
X280070000Y-79600000D03*
X282610000Y-87200000D03*
X282610000Y-79600000D03*
X285150000Y-87200000D03*
X285150000Y-79600000D03*
X287690000Y-87200000D03*
X287690000Y-79600000D03*
X290230000Y-87200000D03*
X290230000Y-79600000D03*
X292770000Y-87200000D03*
X292770000Y-79600000D03*
%TD*%
D39*
%TO.C,U30*%
X239426000Y-137050000D03*
X239426000Y-136400000D03*
X239426000Y-135750000D03*
X239426000Y-135100000D03*
X239426000Y-134450000D03*
X239426000Y-133800000D03*
X239426000Y-133150000D03*
X239426000Y-132500000D03*
X239426000Y-131850000D03*
X239426000Y-131200000D03*
X239426000Y-130550000D03*
X239426000Y-129900000D03*
X233550000Y-129900000D03*
X233550000Y-130550000D03*
X233550000Y-131200000D03*
X233550000Y-131850000D03*
X233550000Y-132500000D03*
X233550000Y-133150000D03*
X233550000Y-133800000D03*
X233550000Y-134450000D03*
X233550000Y-135100000D03*
X233550000Y-135750000D03*
X233550000Y-136400000D03*
X233550000Y-137050000D03*
%TD*%
D40*
%TO.C,J16*%
X273670000Y-157940012D03*
X273670000Y-162990012D03*
X271130000Y-157940012D03*
X271130000Y-162990012D03*
X268590000Y-157940012D03*
X268590000Y-162990012D03*
X266050000Y-157940012D03*
X266050000Y-162990012D03*
%TD*%
D15*
%TO.C,C155*%
X151550000Y-116090523D03*
X151550000Y-117640523D03*
%TD*%
D13*
%TO.C,R245*%
X117625000Y-158825000D03*
X115975000Y-158825000D03*
%TD*%
D21*
%TO.C,R161*%
X291050000Y-208434930D03*
X291050000Y-210084930D03*
%TD*%
D37*
%TO.C,U21*%
X94740000Y-180224000D03*
X96010000Y-180224000D03*
X97280000Y-180224000D03*
X98550000Y-180224000D03*
X98550000Y-174800000D03*
X97280000Y-174800000D03*
X96010000Y-174800000D03*
X94740000Y-174800000D03*
%TD*%
%TO.C,U15*%
X271110000Y-200660930D03*
X269840000Y-200660930D03*
X268570000Y-200660930D03*
X267300000Y-200660930D03*
X267300000Y-206084930D03*
X268570000Y-206084930D03*
X269840000Y-206084930D03*
X271110000Y-206084930D03*
%TD*%
D20*
%TO.C,R29*%
X134300000Y-153400000D03*
X134300000Y-151750000D03*
%TD*%
D16*
%TO.C,C156*%
X153300000Y-117640523D03*
X153300000Y-116090523D03*
%TD*%
D37*
%TO.C,U24*%
X105910000Y-206924000D03*
X107180000Y-206924000D03*
X108450000Y-206924000D03*
X109720000Y-206924000D03*
X109720000Y-201500000D03*
X108450000Y-201500000D03*
X107180000Y-201500000D03*
X105910000Y-201500000D03*
%TD*%
D13*
%TO.C,R168*%
X244700000Y-86400000D03*
X243050000Y-86400000D03*
%TD*%
D28*
%TO.C,C77*%
X137437130Y-93150000D03*
X138987130Y-93150000D03*
%TD*%
D19*
%TO.C,R113*%
X93975000Y-172300000D03*
X95625000Y-172300000D03*
%TD*%
D13*
%TO.C,R172*%
X244700000Y-79400000D03*
X243050000Y-79400000D03*
%TD*%
D41*
%TO.C,C19*%
X92437500Y-129562500D03*
X94162500Y-129562500D03*
%TD*%
D21*
%TO.C,R90*%
X288050000Y-125250000D03*
X288050000Y-126900000D03*
%TD*%
D20*
%TO.C,R36*%
X239800000Y-188225000D03*
X239800000Y-186575000D03*
%TD*%
D21*
%TO.C,R65*%
X130070000Y-77575000D03*
X130070000Y-79225000D03*
%TD*%
D16*
%TO.C,C51*%
X197050000Y-200787500D03*
X197050000Y-199237500D03*
%TD*%
D20*
%TO.C,R100*%
X267050000Y-126900000D03*
X267050000Y-125250000D03*
%TD*%
D13*
%TO.C,R177*%
X244700000Y-100650000D03*
X243050000Y-100650000D03*
%TD*%
D16*
%TO.C,C139*%
X237300000Y-156401335D03*
X237300000Y-154851335D03*
%TD*%
D15*
%TO.C,C21*%
X78220000Y-123625000D03*
X78220000Y-125175000D03*
%TD*%
D35*
%TO.C,D12*%
X216087500Y-68670000D03*
X214512500Y-68670000D03*
%TD*%
D13*
%TO.C,R178*%
X244700000Y-98900000D03*
X243050000Y-98900000D03*
%TD*%
D19*
%TO.C,R159*%
X293475000Y-203584930D03*
X295125000Y-203584930D03*
%TD*%
D36*
%TO.C,Q7*%
X243550000Y-161375000D03*
X243550000Y-163275000D03*
X246550000Y-162325000D03*
%TD*%
D42*
%TO.C,U4*%
X133596130Y-97750000D03*
D43*
X134862130Y-98100000D03*
D44*
X135249632Y-98756250D03*
D42*
X133596130Y-98250002D03*
D45*
X133762132Y-98750001D03*
X133762132Y-99750001D03*
X133762132Y-100250001D03*
X133762132Y-101250001D03*
X133762132Y-101750000D03*
X133762132Y-102250002D03*
D46*
X134662130Y-102900000D03*
X135162131Y-102900000D03*
X135662130Y-102900000D03*
X136662131Y-102900000D03*
X137162130Y-102900000D03*
X137662132Y-102900000D03*
X138162131Y-102900000D03*
X138662132Y-102900000D03*
D45*
X139562130Y-101750000D03*
X139562130Y-101250001D03*
X139562130Y-100750002D03*
D47*
X138162127Y-98850000D03*
D48*
X139716130Y-99250000D03*
X139716130Y-98750001D03*
X139716130Y-98250002D03*
D46*
X138662132Y-97100002D03*
X138162131Y-97100002D03*
X137662132Y-97100002D03*
X137162130Y-97100002D03*
D49*
X135662130Y-96929001D03*
X135162131Y-96929001D03*
X134662130Y-96929001D03*
%TD*%
D16*
%TO.C,C137*%
X237300000Y-76401335D03*
X237300000Y-74851335D03*
%TD*%
D25*
%TO.C,Q2*%
X75730000Y-108250000D03*
X75730000Y-107050000D03*
X75730000Y-105850000D03*
X75730000Y-104650000D03*
X75730000Y-103450000D03*
X75730000Y-102250000D03*
X75730000Y-101050000D03*
X75730000Y-99850000D03*
D26*
X70550000Y-108250000D03*
X70550000Y-107050000D03*
X70550000Y-105850000D03*
X70550000Y-104650000D03*
X70550000Y-103450000D03*
X70550000Y-102250000D03*
X70550000Y-101050000D03*
X70550000Y-99850000D03*
X69350000Y-108250000D03*
X69350000Y-107050000D03*
X69350000Y-105850000D03*
X69350000Y-104650000D03*
X69350000Y-103450000D03*
X69350000Y-102250000D03*
X69350000Y-101050000D03*
X69350000Y-99850000D03*
X68150000Y-107050000D03*
X68150000Y-105850000D03*
X68150000Y-104650000D03*
X68150000Y-103450000D03*
X68150000Y-102250000D03*
X68150000Y-101050000D03*
X66950000Y-107050000D03*
X66950000Y-105850000D03*
X66950000Y-104650000D03*
X66950000Y-103450000D03*
X66950000Y-102250000D03*
X66950000Y-101050000D03*
X65750000Y-107050000D03*
X65750000Y-105850000D03*
X65750000Y-104650000D03*
X65750000Y-103450000D03*
X65750000Y-102250000D03*
X65750000Y-101050000D03*
X64550000Y-108250000D03*
X64550000Y-107050000D03*
X64550000Y-105850000D03*
X64550000Y-104650000D03*
X64550000Y-103450000D03*
X64550000Y-102250000D03*
X64550000Y-101050000D03*
X64550000Y-99850000D03*
%TD*%
D13*
%TO.C,R188*%
X244700000Y-111400000D03*
X243050000Y-111400000D03*
%TD*%
D18*
%TO.C,R19*%
X310550000Y-190139430D03*
X310550000Y-193064430D03*
%TD*%
D20*
%TO.C,R64*%
X126570000Y-79225000D03*
X126570000Y-77575000D03*
%TD*%
D21*
%TO.C,R125*%
X111760000Y-188000000D03*
X111760000Y-189650000D03*
%TD*%
D16*
%TO.C,C150*%
X180050000Y-128984473D03*
X180050000Y-127434473D03*
%TD*%
D21*
%TO.C,R32*%
X243300000Y-203075000D03*
X243300000Y-204725000D03*
%TD*%
D20*
%TO.C,R237*%
X309300000Y-210084930D03*
X309300000Y-208434930D03*
%TD*%
D18*
%TO.C,R17*%
X290550000Y-190139430D03*
X290550000Y-193064430D03*
%TD*%
D13*
%TO.C,R174*%
X244700000Y-105900000D03*
X243050000Y-105900000D03*
%TD*%
D28*
%TO.C,C163*%
X333525000Y-201834930D03*
X335075000Y-201834930D03*
%TD*%
D50*
%TO.C,C169*%
X155737130Y-90650000D03*
X158687130Y-90650000D03*
%TD*%
D15*
%TO.C,C17*%
X79050000Y-134875000D03*
X79050000Y-136425000D03*
%TD*%
D16*
%TO.C,C48*%
X175975000Y-200312500D03*
X175975000Y-198762500D03*
%TD*%
D39*
%TO.C,U32*%
X239426000Y-73050000D03*
X239426000Y-72400000D03*
X239426000Y-71750000D03*
X239426000Y-71100000D03*
X239426000Y-70450000D03*
X239426000Y-69800000D03*
X239426000Y-69150000D03*
X239426000Y-68500000D03*
X239426000Y-67850000D03*
X239426000Y-67200000D03*
X239426000Y-66550000D03*
X239426000Y-65900000D03*
X233550000Y-65900000D03*
X233550000Y-66550000D03*
X233550000Y-67200000D03*
X233550000Y-67850000D03*
X233550000Y-68500000D03*
X233550000Y-69150000D03*
X233550000Y-69800000D03*
X233550000Y-70450000D03*
X233550000Y-71100000D03*
X233550000Y-71750000D03*
X233550000Y-72400000D03*
X233550000Y-73050000D03*
%TD*%
D15*
%TO.C,C142*%
X178300000Y-117434473D03*
X178300000Y-118984473D03*
%TD*%
D20*
%TO.C,R28*%
X132550000Y-153400000D03*
X132550000Y-151750000D03*
%TD*%
D15*
%TO.C,C57*%
X131820000Y-77625000D03*
X131820000Y-79175000D03*
%TD*%
D13*
%TO.C,R112*%
X117625000Y-160325000D03*
X115975000Y-160325000D03*
%TD*%
%TO.C,R171*%
X244700000Y-81150000D03*
X243050000Y-81150000D03*
%TD*%
D18*
%TO.C,R20*%
X310550000Y-194872430D03*
X310550000Y-197797430D03*
%TD*%
D13*
%TO.C,R175*%
X244700000Y-104150000D03*
X243050000Y-104150000D03*
%TD*%
%TO.C,R190*%
X244700000Y-137900000D03*
X243050000Y-137900000D03*
%TD*%
D51*
%TO.C,U48*%
X215845000Y-195850000D03*
X215845000Y-198150000D03*
X215845000Y-200450000D03*
D52*
X222145000Y-198150000D03*
%TD*%
D37*
%TO.C,U23*%
X94700000Y-193574000D03*
X95970000Y-193574000D03*
X97240000Y-193574000D03*
X98510000Y-193574000D03*
X98510000Y-188150000D03*
X97240000Y-188150000D03*
X95970000Y-188150000D03*
X94700000Y-188150000D03*
%TD*%
D28*
%TO.C,C79*%
X242775000Y-189650000D03*
X244325000Y-189650000D03*
%TD*%
D15*
%TO.C,C123*%
X213050000Y-195375000D03*
X213050000Y-196925000D03*
%TD*%
D21*
%TO.C,R242*%
X235800000Y-168250000D03*
X235800000Y-169900000D03*
%TD*%
%TO.C,R116*%
X100550000Y-174650000D03*
X100550000Y-176300000D03*
%TD*%
D34*
%TO.C,C32*%
X243325000Y-201650000D03*
X241775000Y-201650000D03*
%TD*%
D19*
%TO.C,R95*%
X266475000Y-114725000D03*
X268125000Y-114725000D03*
%TD*%
D15*
%TO.C,C84*%
X245800000Y-189375000D03*
X245800000Y-190925000D03*
%TD*%
%TO.C,C135*%
X235550000Y-138851335D03*
X235550000Y-140401335D03*
%TD*%
D13*
%TO.C,R209*%
X244700000Y-153900000D03*
X243050000Y-153900000D03*
%TD*%
D37*
%TO.C,U17*%
X305457000Y-122682000D03*
X306727000Y-122682000D03*
X307997000Y-122682000D03*
X309267000Y-122682000D03*
X309267000Y-117258000D03*
X307997000Y-117258000D03*
X306727000Y-117258000D03*
X305457000Y-117258000D03*
%TD*%
D21*
%TO.C,R42*%
X328300000Y-125250000D03*
X328300000Y-126900000D03*
%TD*%
%TO.C,R225*%
X212800000Y-147500000D03*
X212800000Y-149150000D03*
%TD*%
%TO.C,R123*%
X110260000Y-184250000D03*
X110260000Y-185900000D03*
%TD*%
D13*
%TO.C,R205*%
X244700000Y-66900000D03*
X243050000Y-66900000D03*
%TD*%
D21*
%TO.C,R114*%
X99050000Y-170900000D03*
X99050000Y-172550000D03*
%TD*%
D13*
%TO.C,R219*%
X155125000Y-150941143D03*
X153475000Y-150941143D03*
%TD*%
D28*
%TO.C,C76*%
X137437130Y-91400000D03*
X138987130Y-91400000D03*
%TD*%
D16*
%TO.C,C161*%
X97340000Y-159150000D03*
X97340000Y-157600000D03*
%TD*%
D19*
%TO.C,R50*%
X210900000Y-68660000D03*
X212550000Y-68660000D03*
%TD*%
%TO.C,R139*%
X133225000Y-158325000D03*
X134875000Y-158325000D03*
%TD*%
D53*
%TO.C,R45*%
X178705000Y-193025400D03*
X178705000Y-194850400D03*
%TD*%
D51*
%TO.C,U9*%
X199845000Y-195850000D03*
X199845000Y-198150000D03*
X199845000Y-200450000D03*
D52*
X206145000Y-198150000D03*
%TD*%
D21*
%TO.C,R261*%
X248550000Y-163250000D03*
X248550000Y-164900000D03*
%TD*%
D16*
%TO.C,C101*%
X97300000Y-172500000D03*
X97300000Y-170950000D03*
%TD*%
D13*
%TO.C,R268*%
X241625000Y-169075000D03*
X239975000Y-169075000D03*
%TD*%
D19*
%TO.C,R131*%
X93935000Y-185650000D03*
X95585000Y-185650000D03*
%TD*%
D16*
%TO.C,C141*%
X180050000Y-118984473D03*
X180050000Y-117434473D03*
%TD*%
D20*
%TO.C,R256*%
X327606000Y-210085064D03*
X327606000Y-208435064D03*
%TD*%
D21*
%TO.C,R132*%
X99010000Y-184250000D03*
X99010000Y-185900000D03*
%TD*%
D39*
%TO.C,U29*%
X239426000Y-121050000D03*
X239426000Y-120400000D03*
X239426000Y-119750000D03*
X239426000Y-119100000D03*
X239426000Y-118450000D03*
X239426000Y-117800000D03*
X239426000Y-117150000D03*
X239426000Y-116500000D03*
X239426000Y-115850000D03*
X239426000Y-115200000D03*
X239426000Y-114550000D03*
X239426000Y-113900000D03*
X233550000Y-113900000D03*
X233550000Y-114550000D03*
X233550000Y-115200000D03*
X233550000Y-115850000D03*
X233550000Y-116500000D03*
X233550000Y-117150000D03*
X233550000Y-117800000D03*
X233550000Y-118450000D03*
X233550000Y-119100000D03*
X233550000Y-119750000D03*
X233550000Y-120400000D03*
X233550000Y-121050000D03*
%TD*%
D54*
%TO.C,U11*%
X243455850Y-198906262D03*
X243455850Y-198406262D03*
X243455850Y-197906262D03*
X243455850Y-197406262D03*
X243455850Y-196906262D03*
X243455850Y-196406262D03*
X243455850Y-195906262D03*
X243455850Y-195406262D03*
X243455850Y-194906262D03*
X243455850Y-194406262D03*
X243455850Y-193906262D03*
X243455850Y-193406262D03*
X243455850Y-192906262D03*
X243455850Y-192406262D03*
D55*
X242805850Y-191756262D03*
X242305850Y-191756262D03*
X241805850Y-191756262D03*
X241305850Y-191756262D03*
X240805850Y-191756262D03*
X240305850Y-191756262D03*
X239805850Y-191756262D03*
X239305850Y-191756262D03*
X238805850Y-191756262D03*
X238305850Y-191756262D03*
X237805850Y-191756262D03*
X237305850Y-191756262D03*
D54*
X236655850Y-192406262D03*
X236655850Y-192906262D03*
X236655850Y-193406262D03*
X236655850Y-193906262D03*
X236655850Y-194406262D03*
X236655850Y-194906262D03*
X236655850Y-195406262D03*
X236655850Y-195906262D03*
X236655850Y-196406262D03*
X236655850Y-196906262D03*
X236655850Y-197406262D03*
X236655850Y-197906262D03*
X236655850Y-198406262D03*
X236655850Y-198906262D03*
D55*
X237305850Y-199556262D03*
X237805850Y-199556262D03*
X238305850Y-199556262D03*
X238805850Y-199556262D03*
X239305850Y-199556262D03*
X239805850Y-199556262D03*
X240305850Y-199556262D03*
X240805850Y-199556262D03*
X241307522Y-199556263D03*
X241805850Y-199556262D03*
X242305850Y-199556262D03*
X242805850Y-199556262D03*
D56*
X242084600Y-198075012D03*
X242084600Y-196462512D03*
X242084600Y-194850012D03*
X242084600Y-193237512D03*
X240732100Y-198075012D03*
X240732100Y-196462512D03*
X240732100Y-194850012D03*
X240732100Y-193237512D03*
X239379600Y-198075012D03*
X239379600Y-196462512D03*
X239379600Y-194850012D03*
X239379600Y-193237512D03*
X238027100Y-198075012D03*
X238027100Y-196462512D03*
X238027100Y-194850012D03*
X238027100Y-193237512D03*
%TD*%
D21*
%TO.C,R44*%
X326550000Y-125250000D03*
X326550000Y-126900000D03*
%TD*%
D13*
%TO.C,R191*%
X244700000Y-136150000D03*
X243050000Y-136150000D03*
%TD*%
D20*
%TO.C,C166*%
X135712130Y-107650000D03*
X135712130Y-106000000D03*
%TD*%
D18*
%TO.C,R16*%
X267800000Y-194855430D03*
X267800000Y-197780430D03*
%TD*%
D22*
%TO.C,C125*%
X77300000Y-134787500D03*
X77300000Y-136512500D03*
%TD*%
D28*
%TO.C,C164*%
X137437130Y-94900000D03*
X138987130Y-94900000D03*
%TD*%
D37*
%TO.C,U13*%
X311110000Y-200660930D03*
X309840000Y-200660930D03*
X308570000Y-200660930D03*
X307300000Y-200660930D03*
X307300000Y-206084930D03*
X308570000Y-206084930D03*
X309840000Y-206084930D03*
X311110000Y-206084930D03*
%TD*%
D20*
%TO.C,R43*%
X324800000Y-126900000D03*
X324800000Y-125250000D03*
%TD*%
D13*
%TO.C,R5*%
X108395000Y-110590012D03*
X106745000Y-110590012D03*
%TD*%
%TO.C,R164*%
X228875000Y-162575000D03*
X227225000Y-162575000D03*
%TD*%
D21*
%TO.C,R231*%
X202300000Y-147500000D03*
X202300000Y-149150000D03*
%TD*%
D20*
%TO.C,R76*%
X244300000Y-188225000D03*
X244300000Y-186575000D03*
%TD*%
D21*
%TO.C,R39*%
X329550000Y-113150000D03*
X329550000Y-114800000D03*
%TD*%
D37*
%TO.C,U12*%
X291110000Y-200660930D03*
X289840000Y-200660930D03*
X288570000Y-200660930D03*
X287300000Y-200660930D03*
X287300000Y-206084930D03*
X288570000Y-206084930D03*
X289840000Y-206084930D03*
X291110000Y-206084930D03*
%TD*%
D21*
%TO.C,R40*%
X330435990Y-119325000D03*
X330435990Y-120975000D03*
%TD*%
D57*
%TO.C,C22*%
X83530000Y-134112900D03*
X83530000Y-137237900D03*
%TD*%
D40*
%TO.C,J11*%
X331420000Y-157940012D03*
X331420000Y-162990012D03*
X328880000Y-157940012D03*
X328880000Y-162990012D03*
X326340000Y-157940012D03*
X326340000Y-162990012D03*
X323800000Y-157940012D03*
X323800000Y-162990012D03*
%TD*%
D58*
%TO.C,U38*%
X210200000Y-152774000D03*
X209550000Y-152774000D03*
X208900000Y-152774000D03*
X208250000Y-152774000D03*
X207600000Y-152774000D03*
X206950000Y-152774000D03*
X206300000Y-152774000D03*
X205650000Y-152774000D03*
X205000000Y-152774000D03*
X204350000Y-152774000D03*
X203700000Y-152774000D03*
X203050000Y-152774000D03*
X203050000Y-158650000D03*
X203700000Y-158650000D03*
X204350000Y-158650000D03*
X205000000Y-158650000D03*
X205650000Y-158650000D03*
X206300000Y-158650000D03*
X206950000Y-158650000D03*
X207600000Y-158650000D03*
X208250000Y-158650000D03*
X208900000Y-158650000D03*
X209550000Y-158650000D03*
X210200000Y-158650000D03*
%TD*%
D57*
%TO.C,C20*%
X86950000Y-117594900D03*
X86950000Y-120719900D03*
%TD*%
D19*
%TO.C,R138*%
X133225000Y-156825000D03*
X134875000Y-156825000D03*
%TD*%
D15*
%TO.C,C104*%
X131800000Y-159800000D03*
X131800000Y-161350000D03*
%TD*%
D28*
%TO.C,C8*%
X273525000Y-201834930D03*
X275075000Y-201834930D03*
%TD*%
D19*
%TO.C,R3*%
X60975000Y-110650000D03*
X62625000Y-110650000D03*
%TD*%
D13*
%TO.C,R197*%
X228875000Y-164075000D03*
X227225000Y-164075000D03*
%TD*%
D38*
%TO.C,U45*%
X305830000Y-72200000D03*
X305830000Y-64600000D03*
X308370000Y-72200000D03*
X308370000Y-64600000D03*
X310910000Y-72200000D03*
X310910000Y-64600000D03*
X313450000Y-72200000D03*
X313450000Y-64600000D03*
X315990000Y-72200000D03*
X315990000Y-64600000D03*
X318530000Y-72200000D03*
X318530000Y-64600000D03*
X321070000Y-72200000D03*
X321070000Y-64600000D03*
X323610000Y-72200000D03*
X323610000Y-64600000D03*
X326150000Y-72200000D03*
X326150000Y-64600000D03*
X328690000Y-72200000D03*
X328690000Y-64600000D03*
X331230000Y-72200000D03*
X331230000Y-64600000D03*
X333770000Y-72200000D03*
X333770000Y-64600000D03*
%TD*%
D20*
%TO.C,R145*%
X267606000Y-210085064D03*
X267606000Y-208435064D03*
%TD*%
D28*
%TO.C,C18*%
X92525000Y-131562500D03*
X94075000Y-131562500D03*
%TD*%
D13*
%TO.C,R166*%
X244700000Y-89900000D03*
X243050000Y-89900000D03*
%TD*%
D21*
%TO.C,R155*%
X235800000Y-160250000D03*
X235800000Y-161900000D03*
%TD*%
D15*
%TO.C,C133*%
X235550000Y-122851335D03*
X235550000Y-124401335D03*
%TD*%
D13*
%TO.C,R48*%
X188970000Y-204840012D03*
X187320000Y-204840012D03*
%TD*%
D21*
%TO.C,R69*%
X142712130Y-106000000D03*
X142712130Y-107650000D03*
%TD*%
D13*
%TO.C,R194*%
X244700000Y-130900000D03*
X243050000Y-130900000D03*
%TD*%
D28*
%TO.C,C61*%
X293525000Y-201834930D03*
X295075000Y-201834930D03*
%TD*%
D13*
%TO.C,R185*%
X244700000Y-116650000D03*
X243050000Y-116650000D03*
%TD*%
D21*
%TO.C,R236*%
X311050000Y-208434930D03*
X311050000Y-210084930D03*
%TD*%
D16*
%TO.C,C106*%
X108510000Y-185850000D03*
X108510000Y-184300000D03*
%TD*%
D35*
%TO.C,D9*%
X204800000Y-204150000D03*
X203225000Y-204150000D03*
%TD*%
D20*
%TO.C,R46*%
X176705000Y-194762900D03*
X176705000Y-193112900D03*
%TD*%
D21*
%TO.C,R96*%
X271800000Y-113150000D03*
X271800000Y-114800000D03*
%TD*%
%TO.C,R228*%
X207550000Y-147500000D03*
X207550000Y-149150000D03*
%TD*%
D59*
%TO.C,U39*%
X180625000Y-125459473D03*
X180625000Y-124959473D03*
X180625000Y-124459473D03*
X180625000Y-123959473D03*
X177475000Y-123959473D03*
X177475000Y-124459473D03*
X177475000Y-124959473D03*
X177475000Y-125459473D03*
%TD*%
D15*
%TO.C,C175*%
X152300000Y-159912927D03*
X152300000Y-161462927D03*
%TD*%
D28*
%TO.C,C149*%
X212001335Y-156650000D03*
X213551335Y-156650000D03*
%TD*%
D19*
%TO.C,R149*%
X93895000Y-199000000D03*
X95545000Y-199000000D03*
%TD*%
D16*
%TO.C,C128*%
X237300000Y-92401335D03*
X237300000Y-90851335D03*
%TD*%
D13*
%TO.C,R216*%
X184125000Y-115459473D03*
X182475000Y-115459473D03*
%TD*%
D34*
%TO.C,C5*%
X119825000Y-154325000D03*
X118275000Y-154325000D03*
%TD*%
D21*
%TO.C,R130*%
X121800000Y-164000000D03*
X121800000Y-165650000D03*
%TD*%
D19*
%TO.C,R240*%
X151725000Y-122865523D03*
X153375000Y-122865523D03*
%TD*%
D21*
%TO.C,R148*%
X124800000Y-164000000D03*
X124800000Y-165650000D03*
%TD*%
D50*
%TO.C,C171*%
X155987130Y-103400000D03*
X158937130Y-103400000D03*
%TD*%
D16*
%TO.C,C132*%
X237300000Y-124401335D03*
X237300000Y-122851335D03*
%TD*%
D19*
%TO.C,R30*%
X247225000Y-199900000D03*
X248875000Y-199900000D03*
%TD*%
D21*
%TO.C,R101*%
X270550000Y-125250000D03*
X270550000Y-126900000D03*
%TD*%
D19*
%TO.C,R71*%
X142187130Y-103150000D03*
X143837130Y-103150000D03*
%TD*%
D34*
%TO.C,C6*%
X264937500Y-201584930D03*
X263387500Y-201584930D03*
%TD*%
D13*
%TO.C,R126*%
X264987500Y-203334930D03*
X263337500Y-203334930D03*
%TD*%
D15*
%TO.C,C24*%
X80800000Y-134875000D03*
X80800000Y-136425000D03*
%TD*%
D35*
%TO.C,D2*%
X152800000Y-107900000D03*
X151225000Y-107900000D03*
%TD*%
D19*
%TO.C,R146*%
X147687500Y-107900000D03*
X149337500Y-107900000D03*
%TD*%
D21*
%TO.C,R87*%
X291050000Y-113150000D03*
X291050000Y-114800000D03*
%TD*%
D15*
%TO.C,C153*%
X181050000Y-134621784D03*
X181050000Y-136171784D03*
%TD*%
D20*
%TO.C,R61*%
X128320000Y-79225000D03*
X128320000Y-77575000D03*
%TD*%
D34*
%TO.C,C10*%
X284937500Y-201584930D03*
X283387500Y-201584930D03*
%TD*%
D16*
%TO.C,C173*%
X179800000Y-149675000D03*
X179800000Y-148125000D03*
%TD*%
D28*
%TO.C,C172*%
X129612130Y-98650000D03*
X131162130Y-98650000D03*
%TD*%
D60*
%TO.C,SW1*%
X166600000Y-70150000D03*
X173800000Y-70150000D03*
X166600000Y-67150000D03*
X173800000Y-67150000D03*
%TD*%
D12*
%TO.C,C16*%
X119662500Y-114650000D03*
X124937500Y-114650000D03*
%TD*%
D19*
%TO.C,R67*%
X247225000Y-198400000D03*
X248875000Y-198400000D03*
%TD*%
D21*
%TO.C,R260*%
X248550000Y-160250000D03*
X248550000Y-161900000D03*
%TD*%
%TO.C,R137*%
X271050000Y-208434930D03*
X271050000Y-210084930D03*
%TD*%
D13*
%TO.C,R27*%
X235125000Y-187752912D03*
X233475000Y-187752912D03*
%TD*%
D21*
%TO.C,R150*%
X98970000Y-197600000D03*
X98970000Y-199250000D03*
%TD*%
D13*
%TO.C,R181*%
X244700000Y-123650000D03*
X243050000Y-123650000D03*
%TD*%
D27*
%TO.C,L1*%
X68050000Y-87325000D03*
X68050000Y-93975000D03*
%TD*%
D16*
%TO.C,C143*%
X151050000Y-156216143D03*
X151050000Y-154666143D03*
%TD*%
D28*
%TO.C,C75*%
X137437130Y-89650000D03*
X138987130Y-89650000D03*
%TD*%
D59*
%TO.C,U36*%
X150975000Y-129615523D03*
X150975000Y-130115523D03*
X150975000Y-130615523D03*
X150975000Y-131115523D03*
X154125000Y-131115523D03*
X154125000Y-130615523D03*
X154125000Y-130115523D03*
X154125000Y-129615523D03*
%TD*%
D38*
%TO.C,U26*%
X264830000Y-72200000D03*
X264830000Y-64600000D03*
X267370000Y-72200000D03*
X267370000Y-64600000D03*
X269910000Y-72200000D03*
X269910000Y-64600000D03*
X272450000Y-72200000D03*
X272450000Y-64600000D03*
X274990000Y-72200000D03*
X274990000Y-64600000D03*
X277530000Y-72200000D03*
X277530000Y-64600000D03*
X280070000Y-72200000D03*
X280070000Y-64600000D03*
X282610000Y-72200000D03*
X282610000Y-64600000D03*
X285150000Y-72200000D03*
X285150000Y-64600000D03*
X287690000Y-72200000D03*
X287690000Y-64600000D03*
X290230000Y-72200000D03*
X290230000Y-64600000D03*
X292770000Y-72200000D03*
X292770000Y-64600000D03*
%TD*%
D16*
%TO.C,C46*%
X327780000Y-114720000D03*
X327780000Y-113170000D03*
%TD*%
D21*
%TO.C,R163*%
X235800000Y-163250000D03*
X235800000Y-164900000D03*
%TD*%
D13*
%TO.C,R251*%
X228875000Y-169075000D03*
X227225000Y-169075000D03*
%TD*%
D15*
%TO.C,C129*%
X235550000Y-90851335D03*
X235550000Y-92401335D03*
%TD*%
D19*
%TO.C,R89*%
X291860990Y-117400000D03*
X293510990Y-117400000D03*
%TD*%
D21*
%TO.C,R143*%
X111720000Y-201350000D03*
X111720000Y-203000000D03*
%TD*%
D20*
%TO.C,R160*%
X287606000Y-210085064D03*
X287606000Y-208435064D03*
%TD*%
D13*
%TO.C,R267*%
X241625000Y-172075000D03*
X239975000Y-172075000D03*
%TD*%
D21*
%TO.C,R35*%
X238800000Y-203075000D03*
X238800000Y-204725000D03*
%TD*%
%TO.C,R34*%
X240300000Y-203075000D03*
X240300000Y-204725000D03*
%TD*%
D19*
%TO.C,R77*%
X304975000Y-114725000D03*
X306625000Y-114725000D03*
%TD*%
D16*
%TO.C,C134*%
X237300000Y-140401335D03*
X237300000Y-138851335D03*
%TD*%
D13*
%TO.C,R187*%
X244700000Y-113150000D03*
X243050000Y-113150000D03*
%TD*%
D15*
%TO.C,C38*%
X245800000Y-196875000D03*
X245800000Y-198425000D03*
%TD*%
D35*
%TO.C,D24*%
X220800000Y-204150000D03*
X219225000Y-204150000D03*
%TD*%
D21*
%TO.C,R103*%
X127800000Y-164000000D03*
X127800000Y-165650000D03*
%TD*%
D37*
%TO.C,U19*%
X266957000Y-122682000D03*
X268227000Y-122682000D03*
X269497000Y-122682000D03*
X270767000Y-122682000D03*
X270767000Y-117258000D03*
X269497000Y-117258000D03*
X268227000Y-117258000D03*
X266957000Y-117258000D03*
%TD*%
D13*
%TO.C,R253*%
X324987500Y-205084930D03*
X323337500Y-205084930D03*
%TD*%
D21*
%TO.C,R147*%
X126300000Y-164000000D03*
X126300000Y-165650000D03*
%TD*%
D20*
%TO.C,R162*%
X289300000Y-210084930D03*
X289300000Y-208434930D03*
%TD*%
D23*
%TO.C,D5*%
X77550000Y-119470000D03*
D24*
X76630000Y-115488000D03*
X78470000Y-115488000D03*
%TD*%
D15*
%TO.C,C87*%
X284125990Y-117375000D03*
X284125990Y-118925000D03*
%TD*%
D18*
%TO.C,R15*%
X327800000Y-194855430D03*
X327800000Y-197780430D03*
%TD*%
D59*
%TO.C,U5*%
X180375000Y-146400000D03*
X180375000Y-145900000D03*
X180375000Y-145400000D03*
X180375000Y-144900000D03*
X177225000Y-144900000D03*
X177225000Y-145400000D03*
X177225000Y-145900000D03*
X177225000Y-146400000D03*
%TD*%
D13*
%TO.C,R246*%
X117625000Y-157325000D03*
X115975000Y-157325000D03*
%TD*%
D21*
%TO.C,R226*%
X211050000Y-147500000D03*
X211050000Y-149150000D03*
%TD*%
D37*
%TO.C,U22*%
X105950000Y-193574000D03*
X107220000Y-193574000D03*
X108490000Y-193574000D03*
X109760000Y-193574000D03*
X109760000Y-188150000D03*
X108490000Y-188150000D03*
X107220000Y-188150000D03*
X105950000Y-188150000D03*
%TD*%
D15*
%TO.C,C144*%
X149300000Y-154666143D03*
X149300000Y-156216143D03*
%TD*%
D60*
%TO.C,SW2*%
X184350000Y-70150000D03*
X191550000Y-70150000D03*
X184350000Y-67150000D03*
X191550000Y-67150000D03*
%TD*%
D34*
%TO.C,C109*%
X123325000Y-162575000D03*
X121775000Y-162575000D03*
%TD*%
D19*
%TO.C,R122*%
X105185000Y-185650000D03*
X106835000Y-185650000D03*
%TD*%
D61*
%TO.C,U2*%
X165585000Y-111635000D03*
X169015000Y-111635000D03*
X165585000Y-112905000D03*
X169015000Y-112905000D03*
X165585000Y-114175000D03*
X169015000Y-114175000D03*
X165585000Y-115445000D03*
X169015000Y-115445000D03*
X165585000Y-116715000D03*
X169015000Y-116715000D03*
X165585000Y-117985000D03*
X169015000Y-117985000D03*
X165585000Y-119255000D03*
X169015000Y-119255000D03*
X165585000Y-120525000D03*
X169015000Y-120525000D03*
X165585000Y-121795000D03*
X169015000Y-121795000D03*
X165585000Y-123065000D03*
X169015000Y-123065000D03*
X165585000Y-124335000D03*
X169015000Y-124335000D03*
X165585000Y-125605000D03*
X169015000Y-125605000D03*
X165585000Y-126875000D03*
X169015000Y-126875000D03*
X165585000Y-128145000D03*
X169015000Y-128145000D03*
X165585000Y-129415000D03*
X169015000Y-129415000D03*
X165585000Y-130685000D03*
X169015000Y-130685000D03*
X165585000Y-131955000D03*
X169015000Y-131955000D03*
X165585000Y-133225000D03*
X169015000Y-133225000D03*
X165585000Y-134495000D03*
X169015000Y-134495000D03*
X165585000Y-135765000D03*
X169015000Y-135765000D03*
X165585000Y-137035000D03*
X169015000Y-137035000D03*
X165585000Y-139575000D03*
X169015000Y-139575000D03*
X165585000Y-138305000D03*
X169015000Y-138305000D03*
X165585000Y-140845000D03*
X169015000Y-140845000D03*
X165585000Y-142115000D03*
X169015000Y-142115000D03*
X165585000Y-143385000D03*
X169015000Y-143385000D03*
X165585000Y-144655000D03*
X169015000Y-144655000D03*
X165585000Y-145925000D03*
X169015000Y-145925000D03*
X165585000Y-147195000D03*
X169015000Y-147195000D03*
X165585000Y-149735000D03*
X169015000Y-148465000D03*
X165585000Y-148465000D03*
X169015000Y-149735000D03*
X165585000Y-151005000D03*
X169015000Y-151005000D03*
X165585000Y-152275000D03*
X169015000Y-152275000D03*
X165585000Y-153545000D03*
X169015000Y-154815000D03*
X165585000Y-154815000D03*
X169015000Y-153545000D03*
X165585000Y-156085000D03*
X169015000Y-156085000D03*
X165585000Y-157355000D03*
X169015000Y-157355000D03*
X165585000Y-158625000D03*
X169015000Y-158625000D03*
X165585000Y-159895000D03*
X169015000Y-159895000D03*
X165585000Y-161165000D03*
X169015000Y-161165000D03*
X218585000Y-111635000D03*
X222015000Y-111635000D03*
X218585000Y-112905000D03*
X222015000Y-112905000D03*
X218585000Y-114175000D03*
X222015000Y-114175000D03*
X218585000Y-115445000D03*
X222015000Y-115445000D03*
X218585000Y-116715000D03*
X222015000Y-116715000D03*
X218585000Y-117985000D03*
X222015000Y-117985000D03*
X218585000Y-119255000D03*
X222015000Y-119255000D03*
X218585000Y-120525000D03*
X222015000Y-120525000D03*
X218585000Y-121795000D03*
X222015000Y-121795000D03*
X218585000Y-123065000D03*
X222015000Y-123065000D03*
X218585000Y-124335000D03*
X222015000Y-124335000D03*
X218585000Y-125605000D03*
X222015000Y-125605000D03*
X218585000Y-126875000D03*
X222015000Y-126875000D03*
X218585000Y-128145000D03*
X222015000Y-128145000D03*
X218585000Y-129415000D03*
X222015000Y-129415000D03*
X218585000Y-130685000D03*
X222015000Y-130685000D03*
X218585000Y-131955000D03*
X222015000Y-131955000D03*
X218585000Y-133225000D03*
X222015000Y-133225000D03*
X218585000Y-134495000D03*
X222015000Y-134495000D03*
X218585000Y-135765000D03*
X222015000Y-135765000D03*
X218585000Y-137035000D03*
X222015000Y-137035000D03*
X218585000Y-138305000D03*
X222015000Y-138305000D03*
X218585000Y-139575000D03*
X222015000Y-139575000D03*
X218585000Y-140845000D03*
X222015000Y-140845000D03*
X218585000Y-142115000D03*
X222015000Y-142115000D03*
X218585000Y-143385000D03*
X222015000Y-143385000D03*
X218585000Y-144655000D03*
X222015000Y-144655000D03*
X218585000Y-145925000D03*
X222015000Y-145925000D03*
X218585000Y-147195000D03*
X222015000Y-147195000D03*
X218585000Y-148465000D03*
X222015000Y-148465000D03*
X218585000Y-149735000D03*
X222015000Y-149735000D03*
X218585000Y-151005000D03*
X222015000Y-151005000D03*
X218585000Y-152275000D03*
X222015000Y-152275000D03*
X218585000Y-153545000D03*
X222015000Y-153545000D03*
X218585000Y-154815000D03*
X222015000Y-154815000D03*
X218585000Y-156085000D03*
X222015000Y-156085000D03*
X218585000Y-157355000D03*
X222015000Y-157355000D03*
X218585000Y-158625000D03*
X222015000Y-158625000D03*
X218585000Y-159895000D03*
X222015000Y-161165000D03*
X218585000Y-161165000D03*
X222015000Y-159895000D03*
%TD*%
D20*
%TO.C,R144*%
X269300000Y-210084930D03*
X269300000Y-208434930D03*
%TD*%
D25*
%TO.C,Q6*%
X93470000Y-99950000D03*
X93470000Y-101150000D03*
X93470000Y-102350000D03*
X93470000Y-103550000D03*
X93470000Y-104750000D03*
X93470000Y-105950000D03*
X93470000Y-107150000D03*
X93470000Y-108350000D03*
D26*
X98650000Y-99950000D03*
X98650000Y-101150000D03*
X98650000Y-102350000D03*
X98650000Y-103550000D03*
X98650000Y-104750000D03*
X98650000Y-105950000D03*
X98650000Y-107150000D03*
X98650000Y-108350000D03*
X99850000Y-99950000D03*
X99850000Y-101150000D03*
X99850000Y-102350000D03*
X99850000Y-103550000D03*
X99850000Y-104750000D03*
X99850000Y-105950000D03*
X99850000Y-107150000D03*
X99850000Y-108350000D03*
X101050000Y-101150000D03*
X101050000Y-102350000D03*
X101050000Y-103550000D03*
X101050000Y-104750000D03*
X101050000Y-105950000D03*
X101050000Y-107150000D03*
X102250000Y-101150000D03*
X102250000Y-102350000D03*
X102250000Y-103550000D03*
X102250000Y-104750000D03*
X102250000Y-105950000D03*
X102250000Y-107150000D03*
X103450000Y-101150000D03*
X103450000Y-102350000D03*
X103450000Y-103550000D03*
X103450000Y-104750000D03*
X103450000Y-105950000D03*
X103450000Y-107150000D03*
X104650000Y-99950000D03*
X104650000Y-101150000D03*
X104650000Y-102350000D03*
X104650000Y-103550000D03*
X104650000Y-104750000D03*
X104650000Y-105950000D03*
X104650000Y-107150000D03*
X104650000Y-108350000D03*
%TD*%
D28*
%TO.C,C2*%
X131775000Y-155325000D03*
X133325000Y-155325000D03*
%TD*%
D13*
%TO.C,R207*%
X244700000Y-63400000D03*
X243050000Y-63400000D03*
%TD*%
%TO.C,R269*%
X241625000Y-170575000D03*
X239975000Y-170575000D03*
%TD*%
%TO.C,R182*%
X244700000Y-121900000D03*
X243050000Y-121900000D03*
%TD*%
D19*
%TO.C,R255*%
X333475000Y-205334930D03*
X335125000Y-205334930D03*
%TD*%
%TO.C,R72*%
X129637130Y-103900000D03*
X131287130Y-103900000D03*
%TD*%
%TO.C,R224*%
X313475000Y-205334930D03*
X315125000Y-205334930D03*
%TD*%
D16*
%TO.C,C81*%
X308530000Y-114720000D03*
X308530000Y-113170000D03*
%TD*%
D18*
%TO.C,R23*%
X270550000Y-190139430D03*
X270550000Y-193064430D03*
%TD*%
D36*
%TO.C,Q4*%
X230800000Y-169375000D03*
X230800000Y-171275000D03*
X233800000Y-170325000D03*
%TD*%
D13*
%TO.C,R179*%
X244700000Y-97150000D03*
X243050000Y-97150000D03*
%TD*%
D35*
%TO.C,D11*%
X216050000Y-65900000D03*
X214475000Y-65900000D03*
%TD*%
D59*
%TO.C,U42*%
X150975000Y-119615523D03*
X150975000Y-120115523D03*
X150975000Y-120615523D03*
X150975000Y-121115523D03*
X154125000Y-121115523D03*
X154125000Y-120615523D03*
X154125000Y-120115523D03*
X154125000Y-119615523D03*
%TD*%
D13*
%TO.C,R7*%
X52150000Y-75340012D03*
X50500000Y-75340012D03*
%TD*%
D20*
%TO.C,R53*%
X148050000Y-78950000D03*
X148050000Y-77300000D03*
%TD*%
D19*
%TO.C,R238*%
X176975000Y-138146784D03*
X178625000Y-138146784D03*
%TD*%
D20*
%TO.C,R74*%
X133962130Y-107650000D03*
X133962130Y-106000000D03*
%TD*%
D13*
%TO.C,R156*%
X284987500Y-203334930D03*
X283337500Y-203334930D03*
%TD*%
D21*
%TO.C,R102*%
X129300000Y-164000000D03*
X129300000Y-165650000D03*
%TD*%
D19*
%TO.C,R247*%
X94015000Y-158950000D03*
X95665000Y-158950000D03*
%TD*%
%TO.C,R31*%
X247225000Y-201400000D03*
X248875000Y-201400000D03*
%TD*%
D20*
%TO.C,R82*%
X305550000Y-126900000D03*
X305550000Y-125250000D03*
%TD*%
D19*
%TO.C,R120*%
X133225000Y-159825000D03*
X134875000Y-159825000D03*
%TD*%
D21*
%TO.C,R81*%
X309050000Y-125250000D03*
X309050000Y-126900000D03*
%TD*%
%TO.C,R83*%
X307300000Y-125250000D03*
X307300000Y-126900000D03*
%TD*%
D13*
%TO.C,R176*%
X244700000Y-102400000D03*
X243050000Y-102400000D03*
%TD*%
D16*
%TO.C,C176*%
X154050000Y-161462927D03*
X154050000Y-159912927D03*
%TD*%
D15*
%TO.C,C27*%
X88050000Y-134875000D03*
X88050000Y-136425000D03*
%TD*%
D19*
%TO.C,R80*%
X311110990Y-117400000D03*
X312760990Y-117400000D03*
%TD*%
D13*
%TO.C,R8*%
X52395000Y-80840012D03*
X50745000Y-80840012D03*
%TD*%
D19*
%TO.C,R51*%
X210900000Y-71650000D03*
X212550000Y-71650000D03*
%TD*%
D13*
%TO.C,R119*%
X264987500Y-205084930D03*
X263337500Y-205084930D03*
%TD*%
D21*
%TO.C,R97*%
X272685990Y-119325000D03*
X272685990Y-120975000D03*
%TD*%
D34*
%TO.C,C119*%
X126325000Y-162575000D03*
X124775000Y-162575000D03*
%TD*%
D62*
%TO.C,C49*%
X172745000Y-201074600D03*
X172745000Y-197949600D03*
%TD*%
D63*
%TO.C,R25*%
X101050000Y-76937500D03*
X101050000Y-82862500D03*
%TD*%
D37*
%TO.C,U14*%
X331110000Y-200660930D03*
X329840000Y-200660930D03*
X328570000Y-200660930D03*
X327300000Y-200660930D03*
X327300000Y-206084930D03*
X328570000Y-206084930D03*
X329840000Y-206084930D03*
X331110000Y-206084930D03*
%TD*%
D21*
%TO.C,R107*%
X111800000Y-174650000D03*
X111800000Y-176300000D03*
%TD*%
D19*
%TO.C,R38*%
X324225000Y-114725000D03*
X325875000Y-114725000D03*
%TD*%
D13*
%TO.C,R233*%
X184125000Y-125459473D03*
X182475000Y-125459473D03*
%TD*%
D64*
%TO.C,R68*%
X155187130Y-98950000D03*
X156687130Y-98950000D03*
%TD*%
D28*
%TO.C,C44*%
X239775000Y-189650000D03*
X241325000Y-189650000D03*
%TD*%
D39*
%TO.C,U33*%
X239426000Y-153050000D03*
X239426000Y-152400000D03*
X239426000Y-151750000D03*
X239426000Y-151100000D03*
X239426000Y-150450000D03*
X239426000Y-149800000D03*
X239426000Y-149150000D03*
X239426000Y-148500000D03*
X239426000Y-147850000D03*
X239426000Y-147200000D03*
X239426000Y-146550000D03*
X239426000Y-145900000D03*
X233550000Y-145900000D03*
X233550000Y-146550000D03*
X233550000Y-147200000D03*
X233550000Y-147850000D03*
X233550000Y-148500000D03*
X233550000Y-149150000D03*
X233550000Y-149800000D03*
X233550000Y-150450000D03*
X233550000Y-151100000D03*
X233550000Y-151750000D03*
X233550000Y-152400000D03*
X233550000Y-153050000D03*
%TD*%
D50*
%TO.C,C170*%
X155987130Y-106900000D03*
X158937130Y-106900000D03*
%TD*%
D15*
%TO.C,C47*%
X322625990Y-117375000D03*
X322625990Y-118925000D03*
%TD*%
D29*
%TO.C,R2*%
X90550000Y-131475000D03*
X90550000Y-129650000D03*
%TD*%
D19*
%TO.C,R239*%
X176975000Y-139896784D03*
X178625000Y-139896784D03*
%TD*%
D21*
%TO.C,R134*%
X100510000Y-188000000D03*
X100510000Y-189650000D03*
%TD*%
D59*
%TO.C,U41*%
X180475000Y-138146784D03*
X180475000Y-138646784D03*
X180475000Y-139146784D03*
X180475000Y-139646784D03*
X183625000Y-139646784D03*
X183625000Y-139146784D03*
X183625000Y-138646784D03*
X183625000Y-138146784D03*
%TD*%
D40*
%TO.C,J2*%
X292920000Y-157940012D03*
X292920000Y-162990012D03*
X290380000Y-157940012D03*
X290380000Y-162990012D03*
X287840000Y-157940012D03*
X287840000Y-162990012D03*
X285300000Y-157940012D03*
X285300000Y-162990012D03*
%TD*%
D34*
%TO.C,C3*%
X120075000Y-152825000D03*
X118525000Y-152825000D03*
%TD*%
D37*
%TO.C,U20*%
X105990000Y-180224000D03*
X107260000Y-180224000D03*
X108530000Y-180224000D03*
X109800000Y-180224000D03*
X109800000Y-174800000D03*
X108530000Y-174800000D03*
X107260000Y-174800000D03*
X105990000Y-174800000D03*
%TD*%
D18*
%TO.C,R21*%
X330550000Y-190139430D03*
X330550000Y-193064430D03*
%TD*%
D20*
%TO.C,R52*%
X146300000Y-78950000D03*
X146300000Y-77300000D03*
%TD*%
D57*
%TO.C,C53*%
X188935000Y-197813300D03*
X188935000Y-200938300D03*
%TD*%
D37*
%TO.C,U18*%
X286207000Y-122682000D03*
X287477000Y-122682000D03*
X288747000Y-122682000D03*
X290017000Y-122682000D03*
X290017000Y-117258000D03*
X288747000Y-117258000D03*
X287477000Y-117258000D03*
X286207000Y-117258000D03*
%TD*%
D20*
%TO.C,R91*%
X286300000Y-126900000D03*
X286300000Y-125250000D03*
%TD*%
D13*
%TO.C,R208*%
X244700000Y-155650000D03*
X243050000Y-155650000D03*
%TD*%
D18*
%TO.C,R10*%
X307803000Y-190122430D03*
X307803000Y-193047430D03*
%TD*%
D13*
%TO.C,R157*%
X284987500Y-205084930D03*
X283337500Y-205084930D03*
%TD*%
%TO.C,R183*%
X244700000Y-120150000D03*
X243050000Y-120150000D03*
%TD*%
D37*
%TO.C,U44*%
X94780000Y-166874000D03*
X96050000Y-166874000D03*
X97320000Y-166874000D03*
X98590000Y-166874000D03*
X98590000Y-161450000D03*
X97320000Y-161450000D03*
X96050000Y-161450000D03*
X94780000Y-161450000D03*
%TD*%
D21*
%TO.C,R229*%
X205800000Y-147500000D03*
X205800000Y-149150000D03*
%TD*%
D16*
%TO.C,C146*%
X153300000Y-127640523D03*
X153300000Y-126090523D03*
%TD*%
D20*
%TO.C,R153*%
X182300000Y-146400000D03*
X182300000Y-144750000D03*
%TD*%
D15*
%TO.C,C50*%
X197050000Y-195375000D03*
X197050000Y-196925000D03*
%TD*%
D16*
%TO.C,C4*%
X126300000Y-150012100D03*
X126300000Y-148462100D03*
%TD*%
D65*
%TO.C,U10*%
X82120000Y-156700000D03*
X79580000Y-156700000D03*
X77040000Y-156700000D03*
X74500000Y-156700000D03*
X71960000Y-156700000D03*
X69420000Y-156700000D03*
X66880000Y-156700000D03*
X64340000Y-156700000D03*
X61800000Y-156700000D03*
X59260000Y-156700000D03*
X59260000Y-204710000D03*
X61800000Y-204710000D03*
X64340000Y-204710000D03*
X66880000Y-204710000D03*
X69420000Y-204710000D03*
X71960000Y-204710000D03*
X74500000Y-204710000D03*
X77040000Y-204710000D03*
X79580000Y-204710000D03*
X82120000Y-204710000D03*
X82120000Y-161650000D03*
X79580000Y-161650000D03*
X77040000Y-161650000D03*
X74500000Y-161650000D03*
X71960000Y-161650000D03*
X69420000Y-161650000D03*
X66880000Y-161650000D03*
X64340000Y-161650000D03*
X61800000Y-161650000D03*
X59260000Y-161650000D03*
X59260000Y-199760000D03*
X61800000Y-199760000D03*
X64340000Y-199760000D03*
X66880000Y-199760000D03*
X69420000Y-199760000D03*
X71960000Y-199760000D03*
X74500000Y-199760000D03*
X77040000Y-199760000D03*
X79580000Y-199760000D03*
X82120000Y-199760000D03*
%TD*%
D20*
%TO.C,R235*%
X307606000Y-210085064D03*
X307606000Y-208435064D03*
%TD*%
D21*
%TO.C,R70*%
X140962130Y-106000000D03*
X140962130Y-107650000D03*
%TD*%
D57*
%TO.C,C52*%
X185185000Y-197813300D03*
X185185000Y-200938300D03*
%TD*%
D16*
%TO.C,C96*%
X108550000Y-172500000D03*
X108550000Y-170950000D03*
%TD*%
D19*
%TO.C,R66*%
X247225000Y-196900000D03*
X248875000Y-196900000D03*
%TD*%
D63*
%TO.C,R26*%
X68050000Y-76937500D03*
X68050000Y-82862500D03*
%TD*%
D57*
%TO.C,C26*%
X81780000Y-117612900D03*
X81780000Y-120737900D03*
%TD*%
D66*
%TO.C,U8*%
X180875000Y-199900400D03*
D67*
X180725000Y-199350400D03*
D66*
X180875000Y-198800400D03*
D68*
X179275000Y-198600400D03*
X179275000Y-199100400D03*
X179275000Y-199600400D03*
X179275000Y-200100400D03*
%TD*%
D21*
%TO.C,R129*%
X123300000Y-164000000D03*
X123300000Y-165650000D03*
%TD*%
%TO.C,R243*%
X235800000Y-171250000D03*
X235800000Y-172900000D03*
%TD*%
D13*
%TO.C,R217*%
X184125000Y-113709473D03*
X182475000Y-113709473D03*
%TD*%
D16*
%TO.C,C91*%
X270030000Y-114720000D03*
X270030000Y-113170000D03*
%TD*%
%TO.C,C154*%
X182800000Y-136171784D03*
X182800000Y-134621784D03*
%TD*%
D50*
%TO.C,C168*%
X155737130Y-94150000D03*
X158687130Y-94150000D03*
%TD*%
D15*
%TO.C,C138*%
X235550000Y-74851335D03*
X235550000Y-76401335D03*
%TD*%
D20*
%TO.C,R75*%
X242800000Y-188225000D03*
X242800000Y-186575000D03*
%TD*%
D15*
%TO.C,C140*%
X235550000Y-154851335D03*
X235550000Y-156401335D03*
%TD*%
D21*
%TO.C,R99*%
X268800000Y-125250000D03*
X268800000Y-126900000D03*
%TD*%
D40*
%TO.C,J10*%
X312170000Y-157940012D03*
X312170000Y-162990012D03*
X309630000Y-157940012D03*
X309630000Y-162990012D03*
X307090000Y-157940012D03*
X307090000Y-162990012D03*
X304550000Y-157940012D03*
X304550000Y-162990012D03*
%TD*%
D19*
%TO.C,R158*%
X293475000Y-205334930D03*
X295125000Y-205334930D03*
%TD*%
D59*
%TO.C,U6*%
X151725000Y-163187927D03*
X151725000Y-163687927D03*
X151725000Y-164187927D03*
X151725000Y-164687927D03*
X154875000Y-164687927D03*
X154875000Y-164187927D03*
X154875000Y-163687927D03*
X154875000Y-163187927D03*
%TD*%
D55*
%TO.C,U1*%
X122146250Y-159498338D03*
X122646250Y-159498338D03*
X123146250Y-159498338D03*
X123646250Y-159498338D03*
X124146250Y-159498338D03*
X124646250Y-159498338D03*
X125146250Y-159498338D03*
X125646250Y-159498338D03*
X126146250Y-159498338D03*
X126646250Y-159498338D03*
X127146250Y-159498338D03*
X127646250Y-159498338D03*
X128146250Y-159498338D03*
X128646250Y-159498338D03*
D54*
X129296250Y-158848338D03*
X129296250Y-158348338D03*
X129296250Y-157848338D03*
X129296250Y-157348338D03*
X129296250Y-156848338D03*
X129296250Y-156348338D03*
X129296250Y-155848338D03*
X129296250Y-155348338D03*
X129296250Y-154848338D03*
X129296250Y-154348338D03*
X129296250Y-153848338D03*
X129296250Y-153348338D03*
D55*
X128646250Y-152698338D03*
X128146250Y-152698338D03*
X127646250Y-152698338D03*
X127146250Y-152698338D03*
X126646250Y-152698338D03*
X126146250Y-152698338D03*
X125646250Y-152698338D03*
X125146250Y-152698338D03*
X124646250Y-152698338D03*
X124146250Y-152698338D03*
X123646250Y-152698338D03*
X123146250Y-152698338D03*
X122646250Y-152698338D03*
X122146250Y-152698338D03*
D54*
X121496250Y-153348338D03*
X121496250Y-153848338D03*
X121496250Y-154348338D03*
X121496250Y-154848338D03*
X121496250Y-155348338D03*
X121496250Y-155848338D03*
X121496250Y-156348338D03*
X121496250Y-156848338D03*
X121496249Y-157350010D03*
X121496250Y-157848338D03*
X121496250Y-158348338D03*
X121496250Y-158848338D03*
D69*
X122977500Y-158127088D03*
X124590000Y-158127088D03*
X126202500Y-158127088D03*
X127815000Y-158127088D03*
X122977500Y-156774588D03*
X124590000Y-156774588D03*
X126202500Y-156774588D03*
X127815000Y-156774588D03*
X122977500Y-155422088D03*
X124590000Y-155422088D03*
X126202500Y-155422088D03*
X127815000Y-155422088D03*
X122977500Y-154069588D03*
X124590000Y-154069588D03*
X126202500Y-154069588D03*
X127815000Y-154069588D03*
%TD*%
D37*
%TO.C,U25*%
X94660000Y-206924000D03*
X95930000Y-206924000D03*
X97200000Y-206924000D03*
X98470000Y-206924000D03*
X98470000Y-201500000D03*
X97200000Y-201500000D03*
X95930000Y-201500000D03*
X94660000Y-201500000D03*
%TD*%
D13*
%TO.C,R210*%
X244700000Y-152150000D03*
X243050000Y-152150000D03*
%TD*%
%TO.C,R186*%
X244700000Y-114900000D03*
X243050000Y-114900000D03*
%TD*%
%TO.C,R214*%
X244700000Y-145150000D03*
X243050000Y-145150000D03*
%TD*%
D34*
%TO.C,C148*%
X213551335Y-154900000D03*
X212001335Y-154900000D03*
%TD*%
D19*
%TO.C,R49*%
X210900000Y-65900000D03*
X212550000Y-65900000D03*
%TD*%
D13*
%TO.C,R196*%
X244700000Y-127400000D03*
X243050000Y-127400000D03*
%TD*%
D19*
%TO.C,R254*%
X333475000Y-203584930D03*
X335125000Y-203584930D03*
%TD*%
D13*
%TO.C,R222*%
X304987500Y-205084930D03*
X303337500Y-205084930D03*
%TD*%
D16*
%TO.C,C1*%
X123550000Y-150012100D03*
X123550000Y-148462100D03*
%TD*%
D15*
%TO.C,C114*%
X131800000Y-156800000D03*
X131800000Y-158350000D03*
%TD*%
D21*
%TO.C,R58*%
X151550000Y-77300000D03*
X151550000Y-78950000D03*
%TD*%
D38*
%TO.C,U47*%
X305830000Y-87200000D03*
X305830000Y-79600000D03*
X308370000Y-87200000D03*
X308370000Y-79600000D03*
X310910000Y-87200000D03*
X310910000Y-79600000D03*
X313450000Y-87200000D03*
X313450000Y-79600000D03*
X315990000Y-87200000D03*
X315990000Y-79600000D03*
X318530000Y-87200000D03*
X318530000Y-79600000D03*
X321070000Y-87200000D03*
X321070000Y-79600000D03*
X323610000Y-87200000D03*
X323610000Y-79600000D03*
X326150000Y-87200000D03*
X326150000Y-79600000D03*
X328690000Y-87200000D03*
X328690000Y-79600000D03*
X331230000Y-87200000D03*
X331230000Y-79600000D03*
X333770000Y-87200000D03*
X333770000Y-79600000D03*
%TD*%
D34*
%TO.C,C35*%
X240325000Y-201650000D03*
X238775000Y-201650000D03*
%TD*%
D19*
%TO.C,R140*%
X105145000Y-199000000D03*
X106795000Y-199000000D03*
%TD*%
D13*
%TO.C,R204*%
X244700000Y-68650000D03*
X243050000Y-68650000D03*
%TD*%
%TO.C,R252*%
X324987500Y-203334930D03*
X323337500Y-203334930D03*
%TD*%
%TO.C,R170*%
X244700000Y-82900000D03*
X243050000Y-82900000D03*
%TD*%
D21*
%TO.C,R250*%
X100590000Y-161300000D03*
X100590000Y-162950000D03*
%TD*%
D13*
%TO.C,R201*%
X244700000Y-73900000D03*
X243050000Y-73900000D03*
%TD*%
D16*
%TO.C,C86*%
X289280000Y-114720000D03*
X289280000Y-113170000D03*
%TD*%
%TO.C,C116*%
X108470000Y-199200000D03*
X108470000Y-197650000D03*
%TD*%
D25*
%TO.C,Q5*%
X109300000Y-99950000D03*
X109300000Y-101150000D03*
X109300000Y-102350000D03*
X109300000Y-103550000D03*
X109300000Y-104750000D03*
X109300000Y-105950000D03*
X109300000Y-107150000D03*
X109300000Y-108350000D03*
D26*
X114480000Y-99950000D03*
X114480000Y-101150000D03*
X114480000Y-102350000D03*
X114480000Y-103550000D03*
X114480000Y-104750000D03*
X114480000Y-105950000D03*
X114480000Y-107150000D03*
X114480000Y-108350000D03*
X115680000Y-99950000D03*
X115680000Y-101150000D03*
X115680000Y-102350000D03*
X115680000Y-103550000D03*
X115680000Y-104750000D03*
X115680000Y-105950000D03*
X115680000Y-107150000D03*
X115680000Y-108350000D03*
X116880000Y-101150000D03*
X116880000Y-102350000D03*
X116880000Y-103550000D03*
X116880000Y-104750000D03*
X116880000Y-105950000D03*
X116880000Y-107150000D03*
X118080000Y-101150000D03*
X118080000Y-102350000D03*
X118080000Y-103550000D03*
X118080000Y-104750000D03*
X118080000Y-105950000D03*
X118080000Y-107150000D03*
X119280000Y-101150000D03*
X119280000Y-102350000D03*
X119280000Y-103550000D03*
X119280000Y-104750000D03*
X119280000Y-105950000D03*
X119280000Y-107150000D03*
X120480000Y-99950000D03*
X120480000Y-101150000D03*
X120480000Y-102350000D03*
X120480000Y-103550000D03*
X120480000Y-104750000D03*
X120480000Y-105950000D03*
X120480000Y-107150000D03*
X120480000Y-108350000D03*
%TD*%
D13*
%TO.C,R198*%
X228875000Y-161075000D03*
X227225000Y-161075000D03*
%TD*%
D70*
%TO.C,R128*%
X129474630Y-96900000D03*
X131299630Y-96900000D03*
%TD*%
D21*
%TO.C,R105*%
X110300000Y-170900000D03*
X110300000Y-172550000D03*
%TD*%
D18*
%TO.C,R12*%
X267803000Y-190122430D03*
X267803000Y-193047430D03*
%TD*%
D28*
%TO.C,C74*%
X142162130Y-101400000D03*
X143712130Y-101400000D03*
%TD*%
D39*
%TO.C,U28*%
X239426000Y-105050000D03*
X239426000Y-104400000D03*
X239426000Y-103750000D03*
X239426000Y-103100000D03*
X239426000Y-102450000D03*
X239426000Y-101800000D03*
X239426000Y-101150000D03*
X239426000Y-100500000D03*
X239426000Y-99850000D03*
X239426000Y-99200000D03*
X239426000Y-98550000D03*
X239426000Y-97900000D03*
X233550000Y-97900000D03*
X233550000Y-98550000D03*
X233550000Y-99200000D03*
X233550000Y-99850000D03*
X233550000Y-100500000D03*
X233550000Y-101150000D03*
X233550000Y-101800000D03*
X233550000Y-102450000D03*
X233550000Y-103100000D03*
X233550000Y-103750000D03*
X233550000Y-104400000D03*
X233550000Y-105050000D03*
%TD*%
D19*
%TO.C,R136*%
X273475000Y-203584930D03*
X275125000Y-203584930D03*
%TD*%
D13*
%TO.C,R200*%
X244700000Y-75650000D03*
X243050000Y-75650000D03*
%TD*%
D19*
%TO.C,R47*%
X199602500Y-204190000D03*
X201252500Y-204190000D03*
%TD*%
D34*
%TO.C,C127*%
X324937500Y-201584930D03*
X323387500Y-201584930D03*
%TD*%
D19*
%TO.C,R108*%
X215602500Y-204190000D03*
X217252500Y-204190000D03*
%TD*%
D21*
%TO.C,R78*%
X310300000Y-113150000D03*
X310300000Y-114800000D03*
%TD*%
D18*
%TO.C,R9*%
X287803000Y-190122430D03*
X287803000Y-193047430D03*
%TD*%
D21*
%TO.C,R79*%
X311185990Y-119325000D03*
X311185990Y-120975000D03*
%TD*%
D13*
%TO.C,R165*%
X244700000Y-91650000D03*
X243050000Y-91650000D03*
%TD*%
%TO.C,R262*%
X241625000Y-164075000D03*
X239975000Y-164075000D03*
%TD*%
D19*
%TO.C,R94*%
X247225000Y-193900000D03*
X248875000Y-193900000D03*
%TD*%
D20*
%TO.C,R37*%
X241300000Y-188225000D03*
X241300000Y-186575000D03*
%TD*%
D15*
%TO.C,C131*%
X235550000Y-106851335D03*
X235550000Y-108401335D03*
%TD*%
D13*
%TO.C,R244*%
X228875000Y-172075000D03*
X227225000Y-172075000D03*
%TD*%
D21*
%TO.C,R141*%
X110220000Y-197600000D03*
X110220000Y-199250000D03*
%TD*%
%TO.C,R230*%
X204050000Y-147500000D03*
X204050000Y-149150000D03*
%TD*%
D36*
%TO.C,Q8*%
X243550000Y-169375000D03*
X243550000Y-171275000D03*
X246550000Y-170325000D03*
%TD*%
D13*
%TO.C,R215*%
X244700000Y-143400000D03*
X243050000Y-143400000D03*
%TD*%
D20*
%TO.C,R55*%
X149800000Y-78950000D03*
X149800000Y-77300000D03*
%TD*%
D21*
%TO.C,R257*%
X331050000Y-208434930D03*
X331050000Y-210084930D03*
%TD*%
%TO.C,R154*%
X149800000Y-163187927D03*
X149800000Y-164837927D03*
%TD*%
D19*
%TO.C,R41*%
X330360990Y-117400000D03*
X332010990Y-117400000D03*
%TD*%
D15*
%TO.C,C89*%
X245800000Y-192375000D03*
X245800000Y-193925000D03*
%TD*%
D34*
%TO.C,C63*%
X304937500Y-201584930D03*
X303387500Y-201584930D03*
%TD*%
D39*
%TO.C,U27*%
X239426000Y-89050000D03*
X239426000Y-88400000D03*
X239426000Y-87750000D03*
X239426000Y-87100000D03*
X239426000Y-86450000D03*
X239426000Y-85800000D03*
X239426000Y-85150000D03*
X239426000Y-84500000D03*
X239426000Y-83850000D03*
X239426000Y-83200000D03*
X239426000Y-82550000D03*
X239426000Y-81900000D03*
X233550000Y-81900000D03*
X233550000Y-82550000D03*
X233550000Y-83200000D03*
X233550000Y-83850000D03*
X233550000Y-84500000D03*
X233550000Y-85150000D03*
X233550000Y-85800000D03*
X233550000Y-86450000D03*
X233550000Y-87100000D03*
X233550000Y-87750000D03*
X233550000Y-88400000D03*
X233550000Y-89050000D03*
%TD*%
D21*
%TO.C,R88*%
X291935990Y-119325000D03*
X291935990Y-120975000D03*
%TD*%
D28*
%TO.C,C65*%
X313525000Y-201834930D03*
X315075000Y-201834930D03*
%TD*%
D59*
%TO.C,U35*%
X151625000Y-152691143D03*
X151625000Y-152191143D03*
X151625000Y-151691143D03*
X151625000Y-151191143D03*
X148475000Y-151191143D03*
X148475000Y-151691143D03*
X148475000Y-152191143D03*
X148475000Y-152691143D03*
%TD*%
D19*
%TO.C,R93*%
X247225000Y-192400000D03*
X248875000Y-192400000D03*
%TD*%
%TO.C,R118*%
X129562130Y-102150000D03*
X131212130Y-102150000D03*
%TD*%
D13*
%TO.C,R192*%
X244700000Y-134400000D03*
X243050000Y-134400000D03*
%TD*%
%TO.C,R259*%
X228875000Y-170575000D03*
X227225000Y-170575000D03*
%TD*%
D21*
%TO.C,R232*%
X200550000Y-147500000D03*
X200550000Y-149150000D03*
%TD*%
%TO.C,R152*%
X100470000Y-201350000D03*
X100470000Y-203000000D03*
%TD*%
D19*
%TO.C,R135*%
X273475000Y-205334930D03*
X275125000Y-205334930D03*
%TD*%
%TO.C,R220*%
X151725000Y-132865523D03*
X153375000Y-132865523D03*
%TD*%
D13*
%TO.C,R263*%
X241625000Y-161075000D03*
X239975000Y-161075000D03*
%TD*%
%TO.C,R169*%
X244700000Y-84650000D03*
X243050000Y-84650000D03*
%TD*%
D21*
%TO.C,R248*%
X99090000Y-157550000D03*
X99090000Y-159200000D03*
%TD*%
D59*
%TO.C,U34*%
X180625000Y-115459473D03*
X180625000Y-114959473D03*
X180625000Y-114459473D03*
X180625000Y-113959473D03*
X177475000Y-113959473D03*
X177475000Y-114459473D03*
X177475000Y-114959473D03*
X177475000Y-115459473D03*
%TD*%
D16*
%TO.C,C99*%
X119050000Y-161850000D03*
X119050000Y-160300000D03*
%TD*%
D13*
%TO.C,R167*%
X244700000Y-88150000D03*
X243050000Y-88150000D03*
%TD*%
D19*
%TO.C,R73*%
X129562130Y-100400000D03*
X131212130Y-100400000D03*
%TD*%
D21*
%TO.C,R265*%
X248550000Y-168250000D03*
X248550000Y-169900000D03*
%TD*%
M02*
