M48
; DRILL file {KiCad 9.0.6-9.0.6~ubuntu24.04.1} date 2026-01-26T00:38:50+0100
; FORMAT={-:-/ absolute / metric / decimal}
; #@! TF.CreationDate,2026-01-26T00:38:50+01:00
; #@! TF.GenerationSoftware,Kicad,Pcbnew,9.0.6-9.0.6~ubuntu24.04.1
; #@! TF.FileFunction,Plated,1,4,PTH
FMAT,2
METRIC
; #@! TA.AperFunction,Plated,PTH,ViaDrill
T1C0.300
; #@! TA.AperFunction,Plated,PTH,ComponentDrill
T2C0.840
; #@! TA.AperFunction,Plated,PTH,ComponentDrill
T3C0.950
; #@! TA.AperFunction,Plated,PTH,ComponentDrill
T4C1.000
; #@! TA.AperFunction,Plated,PTH,ComponentDrill
T5C1.260
; #@! TA.AperFunction,Plated,PTH,ComponentDrill
T6C1.400
; #@! TA.AperFunction,Plated,PTH,ComponentDrill
T7C1.500
; #@! TA.AperFunction,Plated,PTH,ComponentDrill
T8C2.200
%
G90
G05
T1
X42.05Y-113.65
X42.05Y-115.9
X44.05Y-110.4
X44.05Y-119.4
X48.8Y-168.4
X48.8Y-176.4
X48.8Y-185.4
X48.8Y-193.4
X56.8Y-150.4
X57.8Y-176.4
X57.8Y-185.4
X64.34Y-204.71
X65.8Y-213.4
X66.88Y-199.76
X67.8Y-150.4
X68.05Y-79.4
X68.05Y-80.9
X69.42Y-199.76
X70.55Y-180.4
X71.05Y-168.65
X71.05Y-177.4
X71.3Y-173.15
X71.55Y-181.4
X71.55Y-182.9
X71.8Y-165.15
X71.96Y-199.76
X72.8Y-148.9
X74.5Y-199.76
X75.73Y-108.25
X77.04Y-199.76
X77.05Y-186.4
X77.3Y-166.9
X77.3Y-183.15
X77.55Y-174.4
X77.55Y-178.9
X77.8Y-170.9
X78.3Y-164.9
X78.55Y-128.15
X78.8Y-129.9
X79.05Y-134.9
X79.3Y-128.9
X79.58Y-199.76
X79.86Y-131.09
X80.8Y-164.65
X81.8Y-148.15
X82.05Y-123.15
X82.12Y-199.76
X82.8Y-213.4
X83.32Y-123.34
X83.8Y-127.65
X83.8Y-129.15
X84.3Y-145.65
X85.3Y-127.65
X85.3Y-129.15
X86.57Y-123.09
X88.05Y-122.65
X88.05Y-134.875
X88.8Y-129.15
X89.3Y-128.15
X89.3Y-170.9
X89.8Y-149.4
X90.05Y-178.9
X90.55Y-129.65
X90.8Y-166.65
X90.8Y-184.4
X92.55Y-152.4
X93.3Y-146.4
X93.47Y-99.95
X94.973Y-203.413
X94.973Y-204.963
X95.013Y-190.063
X95.013Y-191.613
X95.053Y-176.713
X95.053Y-178.263
X95.093Y-163.363
X95.093Y-164.913
X96.223Y-204.188
X96.263Y-190.838
X96.303Y-177.488
X97.47Y-203.5
X97.47Y-205.0
X97.51Y-190.15
X97.51Y-191.65
X97.55Y-176.8
X97.55Y-178.3
X97.59Y-163.45
X97.59Y-164.95
X98.47Y-206.924
X98.51Y-193.574
X98.55Y-180.224
X98.59Y-166.874
X100.4Y-203.0
X100.6Y-163.0
X100.8Y-177.6
X101.05Y-79.15
X101.05Y-81.15
X101.8Y-189.6
X105.8Y-213.4
X106.223Y-203.413
X106.223Y-204.963
X106.263Y-190.063
X106.263Y-191.613
X106.303Y-176.713
X106.303Y-178.263
X108.05Y-162.9
X108.395Y-110.59
X108.72Y-203.5
X108.72Y-205.0
X108.76Y-190.15
X108.76Y-191.65
X108.8Y-176.8
X108.8Y-178.3
X109.3Y-99.95
X109.72Y-206.924
X109.76Y-193.574
X109.8Y-180.224
X110.3Y-158.15
X111.8Y-176.3
X111.8Y-189.65
X113.8Y-203.0
X115.05Y-160.4
X115.05Y-161.9
X116.3Y-173.4
X116.8Y-192.9
X117.05Y-187.15
X117.625Y-157.325
X117.625Y-160.325
X117.65Y-158.85
X117.65Y-161.85
X118.05Y-155.65
X119.734Y-155.509
X120.3Y-150.9
X120.3Y-156.075
X120.3Y-157.075
X120.55Y-86.65
X120.55Y-89.15
X120.55Y-91.65
X120.55Y-94.15
X120.55Y-96.65
X120.8Y-159.575
X121.496Y-152.283
X121.8Y-164.15
X121.8Y-167.4
X123.05Y-137.9
X123.3Y-164.15
X123.3Y-167.4
X123.55Y-148.462
X123.55Y-149.825
X123.8Y-186.65
X124.05Y-155.325
X124.05Y-157.325
X124.05Y-180.15
X124.3Y-102.15
X124.3Y-161.2
X124.8Y-110.4
X124.8Y-118.9
X124.8Y-164.15
X124.955Y-198.38
X125.05Y-156.325
X125.175Y-168.275
X125.275Y-160.9
X125.8Y-100.15
X125.8Y-128.4
X126.021Y-151.487
X126.05Y-134.65
X126.05Y-155.325
X126.05Y-157.325
X126.3Y-148.462
X126.3Y-149.825
X126.3Y-160.9
X126.3Y-164.15
X126.3Y-167.15
X127.05Y-102.15
X127.05Y-113.65
X127.05Y-116.4
X127.05Y-156.325
X127.3Y-80.9
X127.455Y-198.38
X127.8Y-164.15
X128.3Y-83.65
X128.3Y-124.15
X129.05Y-130.4
X129.3Y-164.15
X129.8Y-159.9
X129.955Y-198.38
X130.05Y-180.65
X130.3Y-141.4
X130.426Y-155.122
X130.8Y-151.65
X131.05Y-82.15
X131.775Y-155.325
X132.455Y-198.38
X132.55Y-100.65
X132.55Y-151.75
X133.225Y-156.825
X133.225Y-158.325
X133.225Y-159.825
X133.225Y-161.325
X133.8Y-80.9
X134.955Y-198.38
X135.3Y-104.05
X135.7Y-101.4
X135.8Y-213.4
X136.05Y-167.65
X136.3Y-103.9
X136.7Y-101.4
X137.05Y-96.15
X137.455Y-198.38
X137.7Y-101.4
X137.8Y-96.15
X138.05Y-140.9
X138.3Y-133.65
X138.55Y-96.15
X139.3Y-82.9
X139.8Y-152.9
X139.955Y-198.38
X140.05Y-69.9
X140.55Y-170.15
X140.8Y-100.4
X142.455Y-198.38
X142.712Y-106.0
X143.05Y-133.65
X144.55Y-81.15
X144.955Y-198.38
X145.8Y-102.4
X145.8Y-152.438
X146.05Y-158.4
X147.05Y-140.65
X147.3Y-112.15
X147.3Y-150.9
X147.55Y-213.15
X147.705Y-198.38
X148.3Y-123.4
X148.55Y-82.9
X148.8Y-80.65
X149.05Y-157.65
X149.8Y-163.188
X150.05Y-150.9
X150.3Y-147.938
X150.8Y-111.9
X150.975Y-121.266
X150.975Y-131.266
X151.05Y-157.65
X151.55Y-82.9
X152.3Y-161.463
X153.05Y-111.9
X153.05Y-120.866
X153.05Y-130.866
X153.3Y-164.65
X154.3Y-195.9
X154.8Y-195.4
X155.187Y-98.95
X155.3Y-80.4
X155.3Y-158.688
X155.55Y-126.65
X155.8Y-111.9
X155.8Y-160.188
X156.687Y-98.95
X156.8Y-213.4
X157.05Y-114.15
X157.05Y-151.15
X157.08Y-202.12
X157.55Y-148.4
X157.8Y-85.4
X157.8Y-152.15
X157.8Y-190.65
X158.05Y-155.9
X158.05Y-159.65
X158.3Y-187.4
X158.55Y-112.65
X158.55Y-142.4
X158.55Y-183.65
X158.8Y-118.65
X158.8Y-120.4
X158.8Y-123.9
X158.8Y-133.15
X158.8Y-139.65
X159.05Y-128.9
X159.3Y-87.15
X159.8Y-119.65
X159.8Y-129.4
X159.8Y-156.9
X160.8Y-60.4
X160.8Y-65.4
X160.8Y-70.4
X160.8Y-120.65
X160.8Y-124.65
X160.8Y-131.65
X161.05Y-80.65
X161.05Y-83.15
X161.05Y-139.4
X161.05Y-141.4
X161.05Y-180.9
X161.3Y-86.15
X161.3Y-186.9
X161.3Y-190.4
X161.55Y-165.15
X161.55Y-208.65
X162.05Y-112.9
X162.8Y-112.9
X163.05Y-80.4
X163.05Y-83.15
X163.55Y-112.9
X164.05Y-191.4
X165.55Y-197.15
X165.585Y-115.445
X165.585Y-116.715
X165.585Y-117.985
X165.585Y-119.255
X165.585Y-121.795
X165.585Y-128.145
X165.585Y-129.415
X165.585Y-130.685
X165.585Y-131.955
X165.585Y-133.225
X165.585Y-134.495
X165.585Y-135.765
X165.585Y-137.035
X165.585Y-138.305
X166.55Y-205.4
X166.6Y-67.15
X167.8Y-80.4
X167.8Y-83.4
X169.015Y-139.575
X169.015Y-144.655
X170.55Y-83.4
X170.8Y-80.65
X170.8Y-180.4
X171.05Y-70.15
X171.3Y-131.65
X171.8Y-204.4
X172.05Y-197.9
X172.3Y-125.65
X172.55Y-205.15
X172.8Y-139.15
X172.8Y-204.4
X173.3Y-197.9
X173.3Y-205.4
X173.55Y-121.65
X173.8Y-146.65
X173.8Y-213.4
X175.3Y-139.9
X175.8Y-160.4
X175.8Y-165.4
X175.8Y-170.4
X175.8Y-175.4
X175.975Y-198.675
X177.8Y-121.65
X178.3Y-125.9
X178.3Y-135.9
X178.8Y-147.15
X179.05Y-114.4
X179.05Y-120.15
X180.8Y-160.4
X180.8Y-165.4
X180.8Y-170.4
X180.8Y-185.4
X180.8Y-190.4
X181.3Y-117.4
X181.8Y-137.9
X182.55Y-119.65
X182.55Y-148.65
X183.05Y-149.9
X183.8Y-117.4
X184.55Y-128.9
X184.55Y-141.4
X185.05Y-147.15
X185.55Y-87.65
X185.8Y-82.4
X185.8Y-180.4
X185.8Y-185.4
X185.8Y-190.4
X185.8Y-192.9
X185.8Y-213.4
X186.05Y-136.65
X186.3Y-149.9
X186.3Y-156.9
X186.55Y-114.4
X186.8Y-111.65
X187.05Y-169.65
X187.8Y-167.9
X187.8Y-168.9
X188.55Y-170.15
X188.8Y-70.15
X189.05Y-167.4
X189.3Y-159.9
X189.55Y-113.65
X189.8Y-117.4
X190.05Y-90.65
X190.05Y-92.15
X190.05Y-144.15
X190.3Y-96.15
X190.55Y-151.9
X190.8Y-80.4
X190.8Y-85.4
X190.8Y-91.4
X190.8Y-175.4
X190.8Y-180.4
X190.8Y-185.4
X190.8Y-190.4
X191.3Y-139.9
X191.8Y-89.15
X192.05Y-111.4
X192.05Y-112.4
X192.05Y-147.15
X192.3Y-167.4
X192.55Y-89.9
X192.8Y-154.9
X192.8Y-170.15
X193.05Y-111.4
X193.3Y-89.15
X193.3Y-114.65
X193.55Y-95.4
X193.8Y-148.65
X194.05Y-103.15
X194.3Y-94.65
X195.05Y-95.65
X195.55Y-103.15
X195.8Y-60.4
X195.8Y-65.4
X195.8Y-70.4
X195.8Y-80.4
X195.8Y-85.4
X195.8Y-92.9
X195.8Y-115.4
X195.8Y-130.4
X195.8Y-180.4
X195.8Y-185.4
X195.8Y-190.4
X196.05Y-111.65
X196.05Y-151.4
X196.3Y-102.15
X196.3Y-153.65
X196.55Y-92.15
X196.55Y-93.65
X196.55Y-128.65
X197.05Y-125.4
X197.05Y-127.65
X197.05Y-129.65
X197.05Y-147.65
X197.175Y-151.275
X197.3Y-119.4
X197.3Y-158.65
X197.55Y-128.65
X198.3Y-192.9
X198.8Y-213.4
X199.3Y-99.4
X199.3Y-171.15
X199.3Y-200.8
X199.8Y-103.4
X200.3Y-140.15
X200.3Y-200.05
X200.3Y-200.8
X200.55Y-128.4
X200.55Y-146.15
X200.8Y-60.4
X200.8Y-65.4
X200.8Y-90.4
X200.8Y-95.4
X200.8Y-97.65
X200.8Y-102.4
X200.8Y-115.4
X200.8Y-120.4
X200.8Y-180.4
X200.8Y-185.4
X200.8Y-190.4
X201.55Y-103.4
X202.05Y-138.9
X202.3Y-146.15
X202.55Y-198.15
X202.8Y-101.9
X202.8Y-201.9
X203.3Y-100.15
X203.55Y-101.15
X203.55Y-124.15
X203.55Y-137.9
X204.05Y-146.4
X204.3Y-160.9
X204.3Y-164.4
X204.3Y-175.65
X204.55Y-112.15
X204.8Y-123.55
X204.8Y-136.65
X205.55Y-122.65
X205.6Y-160.65
X205.8Y-60.4
X205.8Y-85.4
X205.8Y-90.4
X205.8Y-115.4
X205.8Y-120.4
X205.8Y-146.4
X205.8Y-185.4
X205.8Y-190.4
X206.3Y-126.4
X206.9Y-160.4
X207.05Y-156.65
X207.55Y-122.4
X207.55Y-146.4
X208.05Y-154.4
X208.05Y-163.15
X208.05Y-164.4
X208.3Y-161.65
X208.55Y-112.65
X208.55Y-165.4
X209.3Y-146.4
X209.55Y-74.9
X209.55Y-111.9
X209.55Y-180.65
X209.8Y-213.4
X210.8Y-60.4
X210.8Y-80.4
X210.8Y-85.4
X210.8Y-90.4
X210.8Y-100.4
X210.8Y-115.4
X210.8Y-130.4
X210.9Y-65.9
X210.9Y-68.66
X210.9Y-71.65
X211.05Y-124.9
X211.05Y-146.4
X211.3Y-161.65
X212.8Y-102.9
X212.8Y-146.4
X213.3Y-184.4
X213.3Y-192.9
X213.8Y-176.4
X214.3Y-127.65
X215.3Y-168.9
X215.4Y-200.1
X215.4Y-200.8
X215.8Y-60.4
X215.8Y-80.4
X215.8Y-85.4
X215.8Y-90.4
X215.8Y-100.4
X215.8Y-103.15
X216.05Y-154.4
X216.05Y-156.65
X216.05Y-181.15
X216.3Y-200.1
X216.3Y-200.8
X216.55Y-163.4
X217.55Y-116.65
X217.55Y-174.4
X217.55Y-187.9
X217.55Y-189.65
X217.8Y-137.15
X218.3Y-60.15
X218.585Y-112.905
X218.585Y-114.175
X218.585Y-116.715
X218.585Y-125.605
X218.585Y-126.875
X218.585Y-128.145
X218.585Y-129.415
X218.585Y-131.955
X218.585Y-133.225
X218.585Y-134.495
X218.585Y-135.765
X218.585Y-138.305
X218.585Y-139.575
X218.585Y-140.845
X218.585Y-142.115
X218.585Y-144.655
X218.585Y-145.925
X218.585Y-147.195
X218.585Y-148.465
X218.585Y-149.735
X218.585Y-151.005
X218.585Y-152.275
X218.585Y-153.545
X218.585Y-154.815
X218.585Y-156.085
X218.585Y-157.355
X218.585Y-158.625
X218.585Y-159.895
X218.585Y-161.165
X218.8Y-59.4
X218.8Y-60.9
X218.8Y-196.9
X219.05Y-199.65
X219.3Y-60.15
X219.544Y-116.649
X219.8Y-166.9
X220.05Y-82.4
X220.3Y-172.15
X220.3Y-190.9
X220.8Y-60.4
X220.8Y-65.4
X220.8Y-70.4
X220.8Y-105.15
X221.05Y-114.15
X221.3Y-209.9
X222.015Y-159.895
X222.55Y-152.15
X223.05Y-169.15
X223.05Y-174.9
X223.3Y-188.4
X223.3Y-211.15
X223.55Y-171.4
X224.55Y-140.65
X224.55Y-168.9
X224.55Y-172.4
X224.751Y-154.101
X224.8Y-188.65
X225.05Y-77.4
X225.8Y-60.4
X225.8Y-65.4
X226.099Y-148.199
X226.3Y-190.9
X226.55Y-213.9
X226.8Y-186.9
X227.8Y-209.4
X228.05Y-189.15
X228.368Y-191.332
X229.8Y-73.65
X229.8Y-164.4
X229.8Y-172.4
X230.05Y-87.15
X230.3Y-85.15
X230.3Y-159.4
X230.55Y-98.4
X230.8Y-60.4
X230.8Y-70.4
X230.8Y-83.9
X230.8Y-102.15
X230.8Y-205.4
X230.8Y-213.9
X231.05Y-67.4
X231.05Y-85.9
X231.05Y-145.15
X231.05Y-146.4
X231.05Y-149.9
X231.099Y-69.201
X231.3Y-101.15
X231.3Y-114.4
X231.3Y-180.4
X231.55Y-66.15
X231.55Y-99.15
X231.55Y-147.15
X231.55Y-149.15
X231.8Y-84.55
X231.8Y-115.4
X232.05Y-153.9
X232.05Y-185.65
X232.3Y-162.15
X232.3Y-170.15
X232.3Y-181.4
X232.55Y-108.15
X232.55Y-111.4
X232.8Y-122.4
X233.05Y-124.4
X233.05Y-184.4
X233.3Y-78.9
X233.475Y-189.503
X233.55Y-127.9
X233.55Y-143.4
X233.57Y-194.815
X233.575Y-197.4
X233.8Y-209.15
X233.8Y-213.9
X234.3Y-184.15
X235.05Y-116.9
X235.05Y-130.15
X235.05Y-131.15
X235.05Y-132.9
X235.05Y-159.65
X235.05Y-167.65
X235.3Y-83.4
X235.3Y-117.9
X235.3Y-133.9
X235.3Y-134.9
X235.3Y-190.65
X235.55Y-74.851
X235.55Y-90.851
X235.55Y-106.851
X235.55Y-122.851
X235.55Y-138.851
X235.55Y-154.851
X235.55Y-195.4
X236.05Y-62.9
X236.3Y-111.65
X236.3Y-189.15
X236.55Y-61.9
X236.55Y-63.65
X236.55Y-158.65
X236.55Y-199.65
X236.8Y-86.15
X237.05Y-62.9
X237.05Y-164.15
X237.05Y-171.15
X237.05Y-172.15
X237.3Y-74.851
X237.3Y-90.851
X237.3Y-106.851
X237.3Y-122.851
X237.3Y-138.851
X237.3Y-154.851
X238.05Y-200.65
X238.55Y-188.65
X238.8Y-203.075
X239.025Y-200.541
X239.05Y-195.4
X239.05Y-197.4
X239.34Y-209.331
X239.55Y-124.65
X239.55Y-143.4
X239.55Y-174.9
X239.775Y-188.225
X239.8Y-127.65
X240.05Y-111.15
X240.05Y-194.4
X240.05Y-196.4
X240.3Y-203.075
X240.3Y-213.9
X240.55Y-79.9
X240.8Y-60.4
X240.8Y-154.4
X241.05Y-195.4
X241.05Y-197.4
X241.3Y-188.25
X241.8Y-203.075
X242.55Y-164.4
X242.55Y-172.4
X242.775Y-188.225
X243.05Y-63.4
X243.05Y-65.15
X243.05Y-66.9
X243.05Y-68.65
X243.05Y-70.4
X243.05Y-72.15
X243.05Y-73.9
X243.05Y-75.65
X243.05Y-79.4
X243.05Y-81.15
X243.05Y-82.9
X243.05Y-84.65
X243.05Y-86.4
X243.05Y-88.15
X243.05Y-89.9
X243.05Y-91.65
X243.05Y-95.4
X243.05Y-97.15
X243.05Y-98.9
X243.05Y-100.65
X243.05Y-102.4
X243.05Y-104.15
X243.05Y-105.9
X243.05Y-107.65
X243.05Y-111.4
X243.05Y-113.15
X243.05Y-114.9
X243.05Y-116.65
X243.05Y-118.4
X243.05Y-120.15
X243.05Y-121.9
X243.05Y-123.65
X243.05Y-127.4
X243.05Y-129.15
X243.05Y-130.9
X243.05Y-132.65
X243.05Y-134.4
X243.05Y-136.15
X243.05Y-137.9
X243.05Y-139.65
X243.05Y-143.4
X243.05Y-145.15
X243.05Y-146.9
X243.05Y-148.65
X243.05Y-150.4
X243.05Y-152.15
X243.05Y-153.9
X243.05Y-155.65
X243.3Y-159.15
X243.3Y-203.075
X243.3Y-213.65
X243.55Y-191.15
X243.55Y-200.4
X244.3Y-188.25
X244.55Y-196.281
X244.8Y-194.65
X245.05Y-162.15
X245.05Y-170.15
X245.775Y-195.4
X245.8Y-60.4
X246.05Y-156.4
X246.05Y-186.9
X246.05Y-209.15
X247.2Y-198.425
X247.225Y-189.4
X247.225Y-192.4
X247.225Y-193.9
X247.225Y-199.9
X247.225Y-201.4
X247.275Y-190.9
X247.275Y-196.9
X247.3Y-208.15
X247.55Y-156.4
X247.8Y-159.65
X247.8Y-167.65
X248.55Y-155.4
X248.55Y-166.15
X249.05Y-154.4
X249.05Y-203.4
X249.8Y-65.4
X249.8Y-159.15
X249.8Y-163.15
X249.8Y-164.15
X249.8Y-171.15
X249.8Y-172.15
X249.8Y-208.4
X250.3Y-174.9
X250.55Y-186.65
X251.05Y-210.15
X251.3Y-193.15
X251.3Y-194.65
X251.55Y-156.9
X251.55Y-171.65
X251.55Y-196.4
X252.3Y-158.9
X252.3Y-204.4
X252.8Y-160.15
X252.8Y-170.65
X253.55Y-167.15
X253.55Y-169.9
X253.8Y-184.9
X254.3Y-173.4
X254.3Y-177.4
X254.3Y-196.9
X254.55Y-193.4
X254.55Y-199.65
X254.55Y-206.15
X254.8Y-190.15
X255.55Y-182.9
X255.8Y-101.65
X255.8Y-134.4
X255.8Y-136.15
X255.8Y-173.15
X256.55Y-211.15
X256.8Y-83.4
X257.05Y-208.65
X257.3Y-199.65
X258.05Y-180.4
X258.3Y-64.9
X258.55Y-203.9
X258.8Y-158.15
X258.8Y-163.4
X258.8Y-167.9
X258.8Y-172.9
X260.8Y-81.15
X261.05Y-128.9
X261.05Y-133.15
X262.3Y-131.65
X262.8Y-198.65
X263.3Y-195.26
X263.387Y-201.585
X263.55Y-128.15
X263.8Y-118.4
X264.3Y-209.15
X264.55Y-88.9
X264.55Y-90.65
X264.8Y-78.65
X264.83Y-64.6
X265.8Y-58.4
X265.84Y-90.65
X266.05Y-162.9
X266.05Y-163.9
X266.55Y-190.15
X267.3Y-79.65
X267.37Y-64.6
X268.21Y-202.1
X268.355Y-204.705
X268.55Y-157.65
X268.55Y-158.9
X268.55Y-162.9
X268.55Y-163.9
X269.05Y-97.65
X269.3Y-190.15
X269.8Y-207.26
X269.91Y-64.6
X269.91Y-79.6
X270.8Y-58.4
X271.05Y-157.65
X271.05Y-158.9
X271.05Y-162.9
X271.05Y-163.9
X272.45Y-64.6
X272.45Y-79.6
X273.05Y-209.4
X273.55Y-162.9
X273.55Y-163.9
X274.376Y-115.9
X274.99Y-64.6
X274.99Y-79.6
X275.55Y-123.15
X275.8Y-58.4
X276.55Y-126.65
X277.53Y-64.6
X277.53Y-79.6
X277.8Y-113.15
X277.8Y-210.4
X279.3Y-102.9
X280.05Y-98.15
X280.07Y-64.6
X280.07Y-79.6
X280.8Y-58.4
X281.55Y-113.15
X281.8Y-122.65
X282.61Y-64.6
X282.61Y-79.6
X282.8Y-92.4
X282.8Y-118.4
X282.8Y-198.4
X283.3Y-195.26
X283.387Y-201.585
X283.55Y-210.65
X284.8Y-111.9
X285.15Y-64.6
X285.15Y-79.6
X285.3Y-162.9
X285.3Y-163.9
X285.8Y-58.4
X286.55Y-190.15
X287.05Y-98.15
X287.69Y-64.6
X287.69Y-79.6
X287.8Y-157.65
X287.8Y-158.9
X287.8Y-162.9
X287.8Y-163.9
X288.21Y-202.1
X288.3Y-204.76
X289.3Y-190.15
X289.8Y-207.26
X290.23Y-64.6
X290.23Y-79.6
X290.3Y-157.65
X290.3Y-158.9
X290.3Y-162.9
X290.3Y-163.9
X290.8Y-58.4
X292.77Y-64.6
X292.77Y-79.6
X292.8Y-112.15
X292.8Y-162.9
X292.8Y-163.9
X293.05Y-209.65
X293.626Y-115.9
X294.8Y-84.15
X295.3Y-70.4
X295.3Y-103.4
X295.3Y-121.9
X295.8Y-58.4
X296.3Y-111.65
X296.8Y-84.15
X297.3Y-211.4
X297.55Y-70.4
X297.694Y-92.544
X300.8Y-58.4
X300.8Y-123.4
X301.8Y-118.4
X303.3Y-195.26
X303.3Y-210.9
X303.387Y-201.585
X303.55Y-103.4
X304.3Y-110.9
X304.55Y-162.9
X304.55Y-163.9
X304.8Y-98.15
X305.8Y-58.4
X305.83Y-64.6
X305.83Y-79.6
X306.55Y-190.15
X307.05Y-157.65
X307.05Y-158.9
X307.05Y-162.9
X307.05Y-163.9
X308.21Y-202.1
X308.3Y-204.76
X308.37Y-64.6
X308.37Y-79.6
X309.3Y-190.15
X309.55Y-157.65
X309.55Y-158.9
X309.55Y-162.9
X309.55Y-163.9
X309.8Y-207.26
X310.8Y-58.4
X310.91Y-64.6
X310.91Y-79.6
X311.3Y-98.15
X312.05Y-162.9
X312.05Y-163.9
X312.876Y-115.9
X313.3Y-209.65
X313.45Y-64.6
X313.45Y-79.6
X314.55Y-110.9
X315.8Y-58.4
X315.99Y-64.6
X315.99Y-79.6
X316.05Y-117.9
X318.05Y-211.15
X318.53Y-64.6
X318.53Y-79.6
X319.55Y-102.4
X320.55Y-123.65
X320.8Y-58.4
X321.07Y-64.6
X321.07Y-79.6
X321.3Y-118.15
X323.3Y-101.4
X323.3Y-110.4
X323.3Y-195.26
X323.387Y-201.585
X323.61Y-64.6
X323.61Y-79.6
X323.8Y-162.9
X323.8Y-163.9
X325.8Y-58.4
X326.15Y-64.6
X326.15Y-79.6
X326.3Y-157.65
X326.3Y-158.9
X326.3Y-162.9
X326.3Y-163.9
X326.55Y-190.15
X328.21Y-202.1
X328.3Y-204.76
X328.55Y-96.4
X328.69Y-64.6
X328.69Y-79.6
X328.8Y-157.65
X328.8Y-158.9
X328.8Y-162.9
X328.8Y-163.9
X329.05Y-212.9
X329.195Y-91.755
X329.3Y-190.15
X329.8Y-207.26
X330.8Y-58.4
X331.23Y-64.6
X331.23Y-79.6
X331.3Y-162.9
X331.3Y-163.9
X332.126Y-115.9
X333.05Y-209.15
X333.77Y-64.6
X333.77Y-79.6
X335.8Y-58.4
X339.55Y-104.9
X345.8Y-70.4
X345.8Y-75.4
X345.8Y-80.4
X345.8Y-110.4
X345.8Y-115.4
X345.8Y-120.4
X345.8Y-125.4
X345.8Y-130.4
X345.8Y-135.4
X345.8Y-140.4
X345.8Y-145.4
X345.8Y-150.4
X345.8Y-195.4
X345.8Y-200.4
T2
X167.3Y-109.045
X167.3Y-163.755
X220.3Y-109.045
X220.3Y-163.755
T3
X139.55Y-117.9
X139.55Y-120.4
X139.55Y-122.9
X139.55Y-125.4
X139.55Y-127.9
T4
X124.835Y-201.272
X124.835Y-203.812
X125.662Y-74.955
X127.375Y-201.272
X127.375Y-203.812
X128.162Y-74.955
X129.915Y-201.272
X129.915Y-203.812
X130.662Y-74.955
X132.455Y-201.272
X132.455Y-203.812
X134.995Y-201.272
X134.995Y-203.812
X137.535Y-201.272
X137.535Y-203.812
X140.075Y-201.272
X140.075Y-203.812
X142.615Y-201.272
X142.615Y-203.812
X145.155Y-201.272
X145.155Y-203.812
X147.267Y-74.71
X147.695Y-201.272
X147.695Y-203.812
X149.767Y-74.71
X150.235Y-201.272
X150.235Y-203.812
X152.267Y-74.71
X152.775Y-201.272
X152.775Y-203.812
X155.315Y-201.272
X155.315Y-203.812
X258.22Y-100.36
X258.22Y-102.9
X260.76Y-100.36
X260.76Y-102.9
X263.3Y-100.36
X263.3Y-102.9
X265.84Y-100.36
X265.84Y-102.9
X266.765Y-172.897
X266.765Y-175.438
X268.38Y-100.36
X268.38Y-102.9
X269.305Y-172.897
X269.305Y-175.438
X271.845Y-172.897
X271.845Y-175.438
X282.22Y-100.397
X282.22Y-102.938
X284.76Y-100.397
X284.76Y-102.938
X286.765Y-172.897
X286.765Y-175.438
X287.3Y-100.397
X287.3Y-102.938
X289.305Y-172.897
X289.305Y-175.438
X289.84Y-100.397
X289.84Y-102.938
X291.845Y-172.897
X291.845Y-175.438
X292.38Y-100.397
X292.38Y-102.938
X306.22Y-100.397
X306.22Y-102.938
X306.765Y-172.897
X306.765Y-175.438
X308.76Y-100.397
X308.76Y-102.938
X309.305Y-172.897
X309.305Y-175.438
X311.3Y-100.397
X311.3Y-102.938
X311.845Y-172.897
X311.845Y-175.438
X313.84Y-100.397
X313.84Y-102.938
X316.38Y-100.397
X316.38Y-102.938
X326.765Y-172.897
X326.765Y-175.438
X329.305Y-172.897
X329.305Y-175.438
X330.22Y-100.4
X330.22Y-102.94
X331.845Y-172.897
X331.845Y-175.438
X332.76Y-100.4
X332.76Y-102.94
X335.3Y-100.4
X335.3Y-102.94
X337.84Y-100.4
X337.84Y-102.94
X340.38Y-100.4
X340.38Y-102.94
T5
X263.36Y-137.833
X263.36Y-140.373
X263.36Y-142.913
X267.17Y-132.753
X269.71Y-132.773
X272.25Y-132.753
X276.06Y-137.833
X276.06Y-140.373
X276.06Y-142.913
X282.61Y-137.833
X282.61Y-140.373
X282.61Y-142.913
X286.42Y-132.753
X288.96Y-132.773
X291.5Y-132.753
X295.31Y-137.833
X295.31Y-140.373
X295.31Y-142.913
X301.86Y-137.833
X301.86Y-140.373
X301.86Y-142.913
X305.67Y-132.753
X308.21Y-132.773
X310.75Y-132.753
X314.56Y-137.833
X314.56Y-140.373
X314.56Y-142.913
X321.11Y-137.833
X321.11Y-140.373
X321.11Y-142.913
X324.92Y-132.753
X327.46Y-132.773
X330.0Y-132.753
X333.81Y-137.833
X333.81Y-140.373
X333.81Y-142.913
T6
X65.05Y-61.85
X65.05Y-67.35
X68.55Y-61.85
X68.55Y-67.35
X72.05Y-61.85
X72.05Y-67.35
X75.55Y-61.85
X75.55Y-67.35
X79.05Y-61.85
X79.05Y-67.35
X82.55Y-61.85
X82.55Y-67.35
X86.05Y-61.85
X86.05Y-67.35
X89.55Y-61.85
X89.55Y-67.35
X93.05Y-61.85
X93.05Y-67.35
X96.55Y-61.85
X96.55Y-67.35
X100.05Y-61.85
X100.05Y-67.35
X103.55Y-61.85
X103.55Y-67.35
X346.356Y-168.9
X346.356Y-172.4
X346.356Y-175.9
X346.356Y-179.4
X351.856Y-168.9
X351.856Y-172.4
X351.856Y-175.9
X351.856Y-179.4
T7
X42.8Y-128.15
X42.8Y-140.65
X60.3Y-128.15
X60.3Y-140.65
T8
X123.762Y-67.955
X132.562Y-67.955
X145.368Y-67.71
X154.167Y-67.71
M30
